<svg width="120" height="121" viewBox="0 0 120 121" fill="none" xmlns="http://www.w3.org/2000/svg">
<rect width="120" height="120" fill="white"/>
<path d="M33.1691 109H21.6495V92.1953H33.1691V95.5586H25.0128V98.9219H30.5323V102.285H25.0128V105.637H33.1691V109ZM50.1856 109H46.9981V101.031C46.9981 100.812 46.9552 100.605 46.8692 100.41C46.7911 100.215 46.6778 100.043 46.5294 99.8945C46.3809 99.7461 46.2091 99.6328 46.0138 99.5547C45.8184 99.4688 45.6114 99.4258 45.3927 99.4258C45.1739 99.4258 44.9669 99.4688 44.7716 99.5547C44.5841 99.6328 44.4161 99.7461 44.2677 99.8945C44.127 100.043 44.0138 100.215 43.9278 100.41C43.8497 100.605 43.8106 100.812 43.8106 101.031V109H40.6114V101.031C40.6114 100.812 40.5684 100.605 40.4825 100.41C40.4044 100.215 40.2911 100.043 40.1427 99.8945C39.9942 99.7461 39.8223 99.6328 39.627 99.5547C39.4317 99.4688 39.2247 99.4258 39.0059 99.4258C38.7872 99.4258 38.5802 99.4688 38.3848 99.5547C38.1973 99.6328 38.0294 99.7461 37.8809 99.8945C37.7403 100.043 37.627 100.215 37.5411 100.41C37.463 100.605 37.4239 100.812 37.4239 101.031V109H34.2247V96.4492H34.9981L35.8653 97.4102C36.3106 97.0352 36.7989 96.7461 37.3302 96.543C37.8692 96.332 38.4278 96.2266 39.0059 96.2266C39.5919 96.2266 40.1622 96.3359 40.7169 96.5547C41.2794 96.7734 41.7716 97.1523 42.1934 97.6914C42.3888 97.4258 42.6114 97.1992 42.8614 97.0117C43.1114 96.8242 43.3731 96.6719 43.6466 96.5547C43.9278 96.4375 44.2169 96.3555 44.5138 96.3086C44.8106 96.2539 45.1036 96.2266 45.3927 96.2266C46.0567 96.2266 46.6778 96.3516 47.2559 96.6016C47.8419 96.8516 48.3497 97.1953 48.7794 97.6328C49.2169 98.0625 49.5606 98.5703 49.8106 99.1562C50.0606 99.7422 50.1856 100.367 50.1856 101.031V109ZM63.6983 102.613C63.6983 103.551 63.5303 104.426 63.1944 105.238C62.8584 106.043 62.4014 106.742 61.8233 107.336C61.2452 107.922 60.5655 108.387 59.7842 108.73C59.0108 109.066 58.1787 109.234 57.2881 109.234C56.4053 109.234 55.5733 109.066 54.792 108.73C54.0186 108.387 53.3389 107.922 52.753 107.336C52.1748 106.742 51.7178 106.043 51.3819 105.238C51.0459 104.426 50.878 103.551 50.878 102.613C50.878 101.66 51.0459 100.777 51.3819 99.9648C51.7178 99.1523 52.1748 98.4531 52.753 97.8672C53.3389 97.2734 54.0186 96.8086 54.792 96.4727C55.5733 96.1367 56.4053 95.9688 57.2881 95.9688C58.1787 95.9688 59.0108 96.1289 59.7842 96.4492C60.5655 96.7617 61.2452 97.2109 61.8233 97.7969C62.4014 98.375 62.8584 99.0742 63.1944 99.8945C63.5303 100.707 63.6983 101.613 63.6983 102.613ZM60.4756 102.613C60.4756 102.098 60.3897 101.633 60.2178 101.219C60.0537 100.797 59.8272 100.438 59.5381 100.141C59.2491 99.8359 58.9092 99.6055 58.5186 99.4492C58.1358 99.2852 57.7256 99.2031 57.2881 99.2031C56.8506 99.2031 56.4366 99.2852 56.0459 99.4492C55.6631 99.6055 55.3272 99.8359 55.0381 100.141C54.7569 100.438 54.5342 100.797 54.3702 101.219C54.2061 101.633 54.1241 102.098 54.1241 102.613C54.1241 103.098 54.2061 103.547 54.3702 103.961C54.5342 104.375 54.7569 104.734 55.0381 105.039C55.3272 105.344 55.6631 105.586 56.0459 105.766C56.4366 105.938 56.8506 106.023 57.2881 106.023C57.7256 106.023 58.1358 105.941 58.5186 105.777C58.9092 105.613 59.2491 105.383 59.5381 105.086C59.8272 104.789 60.0537 104.43 60.2178 104.008C60.3897 103.586 60.4756 103.121 60.4756 102.613ZM70.707 109C69.9336 109 69.207 108.855 68.5273 108.566C67.8477 108.27 67.25 107.867 66.7344 107.359C66.2266 106.844 65.8242 106.246 65.5273 105.566C65.2383 104.887 65.0938 104.16 65.0938 103.387V99.6602H63.5352V96.4727H65.0938V91.457H68.2812V96.4727H73.1328V99.6602H68.2812V103.387C68.2812 103.723 68.3438 104.039 68.4688 104.336C68.5938 104.625 68.7656 104.879 68.9844 105.098C69.2031 105.316 69.4609 105.492 69.7578 105.625C70.0547 105.75 70.3711 105.812 70.707 105.812H73.1328V109H70.707Z" fill="#00DD31"/>
<path d="M77.7509 93.0391C77.7509 93.3359 77.6923 93.6133 77.5752 93.8711C77.4658 94.1289 77.3134 94.3555 77.1181 94.5508C76.9228 94.7383 76.6923 94.8906 76.4267 95.0078C76.1689 95.1172 75.8916 95.1719 75.5947 95.1719C75.2978 95.1719 75.0166 95.1172 74.7509 95.0078C74.4931 94.8906 74.2666 94.7383 74.0713 94.5508C73.8838 94.3555 73.7314 94.1289 73.6142 93.8711C73.5048 93.6133 73.4502 93.3359 73.4502 93.0391C73.4502 92.75 73.5048 92.4766 73.6142 92.2188C73.7314 91.9531 73.8838 91.7266 74.0713 91.5391C74.2666 91.3438 74.4931 91.1914 74.7509 91.082C75.0166 90.9648 75.2978 90.9062 75.5947 90.9062C75.8916 90.9062 76.1689 90.9648 76.4267 91.082C76.6923 91.1914 76.9228 91.3438 77.1181 91.5391C77.3134 91.7266 77.4658 91.9531 77.5752 92.2188C77.6923 92.4766 77.7509 92.75 77.7509 93.0391ZM77.2002 109H73.9775V96.4492H77.2002V109ZM90.8183 102.613C90.8183 103.551 90.6503 104.426 90.3144 105.238C89.9784 106.043 89.5214 106.742 88.9433 107.336C88.3652 107.922 87.6855 108.387 86.9042 108.73C86.1308 109.066 85.2988 109.234 84.4081 109.234C83.5253 109.234 82.6933 109.066 81.912 108.73C81.1386 108.387 80.4589 107.922 79.873 107.336C79.2948 106.742 78.8378 106.043 78.5019 105.238C78.1659 104.426 77.998 103.551 77.998 102.613C77.998 101.66 78.1659 100.777 78.5019 99.9648C78.8378 99.1523 79.2948 98.4531 79.873 97.8672C80.4589 97.2734 81.1386 96.8086 81.912 96.4727C82.6933 96.1367 83.5253 95.9688 84.4081 95.9688C85.2988 95.9688 86.1308 96.1289 86.9042 96.4492C87.6855 96.7617 88.3652 97.2109 88.9433 97.7969C89.5214 98.375 89.9784 99.0742 90.3144 99.8945C90.6503 100.707 90.8183 101.613 90.8183 102.613ZM87.5956 102.613C87.5956 102.098 87.5097 101.633 87.3378 101.219C87.1738 100.797 86.9472 100.438 86.6581 100.141C86.3691 99.8359 86.0292 99.6055 85.6386 99.4492C85.2558 99.2852 84.8456 99.2031 84.4081 99.2031C83.9706 99.2031 83.5566 99.2852 83.1659 99.4492C82.7831 99.6055 82.4472 99.8359 82.1581 100.141C81.8769 100.438 81.6542 100.797 81.4902 101.219C81.3261 101.633 81.2441 102.098 81.2441 102.613C81.2441 103.098 81.3261 103.547 81.4902 103.961C81.6542 104.375 81.8769 104.734 82.1581 105.039C82.4472 105.344 82.7831 105.586 83.1659 105.766C83.5566 105.938 83.9706 106.023 84.4081 106.023C84.8456 106.023 85.2558 105.941 85.6386 105.777C86.0292 105.613 86.3691 105.383 86.6581 105.086C86.9472 104.789 87.1738 104.43 87.3378 104.008C87.5097 103.586 87.5956 103.121 87.5956 102.613ZM94.827 109H91.6278V96.4492H92.4012L93.4559 97.668C93.9716 97.1992 94.5536 96.8398 95.202 96.5898C95.8583 96.332 96.5419 96.2031 97.2528 96.2031C98.0184 96.2031 98.7411 96.3516 99.4208 96.6484C100.1 96.9375 100.694 97.3398 101.202 97.8555C101.71 98.3633 102.108 98.9609 102.397 99.6484C102.694 100.328 102.843 101.055 102.843 101.828V109H99.6434V101.828C99.6434 101.5 99.5809 101.191 99.4559 100.902C99.3309 100.605 99.1591 100.348 98.9403 100.129C98.7216 99.9102 98.4677 99.7383 98.1786 99.6133C97.8895 99.4883 97.5809 99.4258 97.2528 99.4258C96.9169 99.4258 96.6005 99.4883 96.3036 99.6133C96.0067 99.7383 95.7489 99.9102 95.5302 100.129C95.3114 100.348 95.1395 100.605 95.0145 100.902C94.8895 101.191 94.827 101.5 94.827 101.828V109Z" fill="#FDE030"/>
<path d="M33.1691 109V109.5H33.6691V109H33.1691ZM21.6495 109H21.1495V109.5H21.6495V109ZM21.6495 92.1953V91.6953H21.1495V92.1953H21.6495ZM33.1691 92.1953H33.6691V91.6953H33.1691V92.1953ZM33.1691 95.5586V96.0586H33.6691V95.5586H33.1691ZM25.0128 95.5586V95.0586H24.5128V95.5586H25.0128ZM25.0128 98.9219H24.5128V99.4219H25.0128V98.9219ZM30.5323 98.9219H31.0323V98.4219H30.5323V98.9219ZM30.5323 102.285V102.785H31.0323V102.285H30.5323ZM25.0128 102.285V101.785H24.5128V102.285H25.0128ZM25.0128 105.637H24.5128V106.137H25.0128V105.637ZM33.1691 105.637H33.6691V105.137H33.1691V105.637ZM33.1691 108.5H21.6495V109.5H33.1691V108.5ZM22.1495 109V92.1953H21.1495V109H22.1495ZM21.6495 92.6953H33.1691V91.6953H21.6495V92.6953ZM32.6691 92.1953V95.5586H33.6691V92.1953H32.6691ZM33.1691 95.0586H25.0128V96.0586H33.1691V95.0586ZM24.5128 95.5586V98.9219H25.5128V95.5586H24.5128ZM25.0128 99.4219H30.5323V98.4219H25.0128V99.4219ZM30.0323 98.9219V102.285H31.0323V98.9219H30.0323ZM30.5323 101.785H25.0128V102.785H30.5323V101.785ZM24.5128 102.285V105.637H25.5128V102.285H24.5128ZM25.0128 106.137H33.1691V105.137H25.0128V106.137ZM32.6691 105.637V109H33.6691V105.637H32.6691ZM50.1856 109V109.5H50.6856V109H50.1856ZM46.9981 109H46.4981V109.5H46.9981V109ZM46.8692 100.41L46.405 100.596L46.4081 100.604L46.4116 100.612L46.8692 100.41ZM46.0138 99.5547L45.8124 100.012L45.8202 100.016L45.8281 100.019L46.0138 99.5547ZM44.7716 99.5547L44.9639 100.016L44.9729 100.012L44.7716 99.5547ZM44.2677 99.8945L43.914 99.5408L43.9047 99.5507L44.2677 99.8945ZM43.9278 100.41L43.4702 100.209L43.4667 100.217L43.4636 100.224L43.9278 100.41ZM43.8106 109V109.5H44.3106V109H43.8106ZM40.6114 109H40.1114V109.5H40.6114V109ZM40.4825 100.41L40.0183 100.596L40.0214 100.604L40.0248 100.612L40.4825 100.41ZM39.627 99.5547L39.4257 100.012L39.4334 100.016L39.4413 100.019L39.627 99.5547ZM38.3848 99.5547L38.5772 100.016L38.5862 100.012L38.3848 99.5547ZM37.8809 99.8945L37.5273 99.5408L37.518 99.5507L37.8809 99.8945ZM37.5411 100.41L37.0834 100.209L37.08 100.217L37.0769 100.224L37.5411 100.41ZM37.4239 109V109.5H37.9239V109H37.4239ZM34.2247 109H33.7247V109.5H34.2247V109ZM34.2247 96.4492V95.9492H33.7247V96.4492H34.2247ZM34.9981 96.4492L35.3693 96.1142L35.2204 95.9492H34.9981V96.4492ZM35.8653 97.4102L35.4941 97.7451L35.8178 98.1038L36.1874 97.7926L35.8653 97.4102ZM37.3302 96.543L37.5087 97.01L37.5124 97.0086L37.3302 96.543ZM40.7169 96.5547L40.5334 97.0198L40.5357 97.0207L40.7169 96.5547ZM42.1934 97.6914L41.7997 97.9996L42.2059 98.5186L42.5963 97.9876L42.1934 97.6914ZM43.6466 96.5547L43.4542 96.0931L43.4496 96.0951L43.6466 96.5547ZM44.5138 96.3086L44.5918 96.8026L44.6043 96.8003L44.5138 96.3086ZM47.2559 96.6016L47.0575 97.0605L47.0597 97.0615L47.2559 96.6016ZM48.7794 97.6328L48.4226 97.9832L48.429 97.9895L48.7794 97.6328ZM50.1856 108.5H46.9981V109.5H50.1856V108.5ZM47.4981 109V101.031H46.4981V109H47.4981ZM47.4981 101.031C47.4981 100.745 47.4415 100.469 47.3269 100.209L46.4116 100.612C46.4689 100.742 46.4981 100.88 46.4981 101.031H47.4981ZM47.3335 100.224C47.2302 99.9664 47.0794 99.7374 46.8829 99.541L46.1758 100.248C46.2763 100.349 46.352 100.463 46.405 100.596L47.3335 100.224ZM46.8829 99.541C46.6865 99.3446 46.4575 99.1937 46.1994 99.0904L45.8281 100.019C45.9606 100.072 46.0754 100.148 46.1758 100.248L46.8829 99.541ZM46.2151 99.097C45.9547 98.9825 45.679 98.9258 45.3927 98.9258V99.9258C45.5439 99.9258 45.6821 99.955 45.8124 100.012L46.2151 99.097ZM45.3927 98.9258C45.1064 98.9258 44.8306 98.9825 44.5702 99.097L44.9729 100.012C45.1032 99.955 45.2415 99.9258 45.3927 99.9258V98.9258ZM44.5793 99.0931C44.3294 99.1972 44.1071 99.3479 43.9141 99.541L44.6212 100.248C44.725 100.144 44.8387 100.068 44.9639 100.016L44.5793 99.0931ZM43.9047 99.5507C43.7228 99.7426 43.5782 99.9632 43.4702 100.209L44.3855 100.612C44.4493 100.466 44.5312 100.343 44.6306 100.238L43.9047 99.5507ZM43.4636 100.224C43.3609 100.481 43.3106 100.751 43.3106 101.031H44.3106C44.3106 100.874 44.3385 100.73 44.3921 100.596L43.4636 100.224ZM43.3106 101.031V109H44.3106V101.031H43.3106ZM43.8106 108.5H40.6114V109.5H43.8106V108.5ZM41.1114 109V101.031H40.1114V109H41.1114ZM41.1114 101.031C41.1114 100.745 41.0547 100.469 40.9402 100.209L40.0248 100.612C40.0821 100.742 40.1114 100.88 40.1114 101.031H41.1114ZM40.9467 100.224C40.8435 99.9664 40.6926 99.7374 40.4962 99.541L39.7891 100.248C39.8896 100.349 39.9652 100.463 40.0183 100.596L40.9467 100.224ZM40.4962 99.541C40.2998 99.3446 40.0708 99.1937 39.8127 99.0904L39.4413 100.019C39.5739 100.072 39.6887 100.148 39.7891 100.248L40.4962 99.541ZM39.8284 99.097C39.568 98.9825 39.2922 98.9258 39.0059 98.9258V99.9258C39.1571 99.9258 39.2954 99.955 39.4257 100.012L39.8284 99.097ZM39.0059 98.9258C38.7196 98.9258 38.4439 98.9825 38.1835 99.097L38.5862 100.012C38.7164 99.955 38.8547 99.9258 39.0059 99.9258V98.9258ZM38.1925 99.0931C37.9427 99.1972 37.7204 99.3479 37.5274 99.541L38.2345 100.248C38.3383 100.144 38.452 100.068 38.5772 100.016L38.1925 99.0931ZM37.518 99.5507C37.3361 99.7426 37.1915 99.9632 37.0834 100.209L37.9988 100.612C38.0626 100.466 38.1445 100.343 38.2439 100.238L37.518 99.5507ZM37.0769 100.224C36.9742 100.481 36.9239 100.751 36.9239 101.031H37.9239C37.9239 100.874 37.9518 100.73 38.0053 100.596L37.0769 100.224ZM36.9239 101.031V109H37.9239V101.031H36.9239ZM37.4239 108.5H34.2247V109.5H37.4239V108.5ZM34.7247 109V96.4492H33.7247V109H34.7247ZM34.2247 96.9492H34.9981V95.9492H34.2247V96.9492ZM34.6269 96.7842L35.4941 97.7451L36.2365 97.0752L35.3693 96.1142L34.6269 96.7842ZM36.1874 97.7926C36.591 97.4528 37.0309 97.1927 37.5087 97.01L37.1516 96.0759C36.5669 96.2995 36.0303 96.6175 35.5432 97.0277L36.1874 97.7926ZM37.5124 97.0086C37.9934 96.8203 38.4902 96.7266 39.0059 96.7266V95.7266C38.3654 95.7266 37.745 95.8437 37.148 96.0773L37.5124 97.0086ZM39.0059 96.7266C39.528 96.7266 40.0361 96.8237 40.5334 97.0198L40.9003 96.0896C40.2883 95.8482 39.6558 95.7266 39.0059 95.7266V96.7266ZM40.5357 97.0207C41.0036 97.2027 41.4256 97.5216 41.7997 97.9996L42.5872 97.3833C42.1175 96.7831 41.5551 96.3442 40.8981 96.0887L40.5357 97.0207ZM42.5963 97.9876C42.7642 97.7592 42.9527 97.5683 43.1614 97.4117L42.5614 96.6117C42.2701 96.8302 42.0133 97.0923 41.7906 97.3952L42.5963 97.9876ZM43.1614 97.4117C43.3812 97.2469 43.6085 97.115 43.8435 97.0143L43.4496 96.0951C43.1378 96.2288 42.8417 96.4015 42.5614 96.6117L43.1614 97.4117ZM43.8389 97.0162C44.0839 96.9141 44.3347 96.8431 44.5917 96.8025L44.4358 95.8147C44.0991 95.8679 43.7717 95.9609 43.4543 96.0931L43.8389 97.0162ZM44.6043 96.8003C44.8726 96.7509 45.1353 96.7266 45.3927 96.7266V95.7266C45.0719 95.7266 44.7486 95.7569 44.4232 95.8169L44.6043 96.8003ZM45.3927 96.7266C45.9922 96.7266 46.5454 96.839 47.0575 97.0605L47.4544 96.1426C46.8102 95.8641 46.1212 95.7266 45.3927 95.7266V96.7266ZM47.0597 97.0615C47.5879 97.2868 48.0406 97.5941 48.4227 97.9832L49.1361 97.2825C48.6588 96.7965 48.0959 96.4163 47.4522 96.1417L47.0597 97.0615ZM48.429 97.9895C48.8181 98.3716 49.1254 98.8243 49.3507 99.3525L50.2705 98.96C49.9959 98.3163 49.6157 97.7534 49.1297 97.2761L48.429 97.9895ZM49.3507 99.3525C49.5731 99.8737 49.6856 100.432 49.6856 101.031H50.6856C50.6856 100.303 50.5481 99.6106 50.2705 98.96L49.3507 99.3525ZM49.6856 101.031V109H50.6856V101.031H49.6856ZM63.1944 105.238L63.6558 105.431L63.6564 105.429L63.1944 105.238ZM61.8233 107.336L62.1792 107.687L62.1815 107.685L61.8233 107.336ZM59.7842 108.73L59.9834 109.189L59.9856 109.188L59.7842 108.73ZM54.792 108.73L54.5889 109.187L54.5945 109.19L54.792 108.73ZM52.753 107.336L52.3947 107.685L52.3994 107.689L52.753 107.336ZM51.3819 105.238L50.9198 105.429L50.9205 105.431L51.3819 105.238ZM52.753 97.8672L52.3971 97.516L52.397 97.516L52.753 97.8672ZM54.792 96.4727L54.5945 96.0133L54.5928 96.014L54.792 96.4727ZM59.7842 96.4492L59.5929 96.9112L59.5985 96.9135L59.7842 96.4492ZM61.8233 97.7969L61.4674 98.1481L61.4697 98.1504L61.8233 97.7969ZM63.1944 99.8945L62.7317 100.084L62.7323 100.086L63.1944 99.8945ZM60.2178 101.219L59.7517 101.4L59.756 101.41L60.2178 101.219ZM59.5381 100.141L59.1754 100.485L59.1799 100.489L59.5381 100.141ZM58.5186 99.4492L58.3216 99.9089L58.3329 99.9135L58.5186 99.4492ZM56.0459 99.4492L56.2349 99.9122L56.2396 99.9102L56.0459 99.4492ZM55.0381 100.141L54.6754 99.7965L54.6751 99.7968L55.0381 100.141ZM54.3702 101.219L54.835 101.403L54.8362 101.4L54.3702 101.219ZM55.0381 105.039L54.6707 105.378L54.6754 105.383L55.0381 105.039ZM56.0459 105.766L55.8334 106.218L55.8446 106.223L56.0459 105.766ZM58.5186 105.777L58.325 105.316L58.3216 105.318L58.5186 105.777ZM60.2178 104.008L59.7547 103.819L59.7518 103.827L60.2178 104.008ZM63.1983 102.613C63.1983 103.49 63.0416 104.299 62.7323 105.047L63.6564 105.429C64.019 104.552 64.1983 103.612 64.1983 102.613H63.1983ZM62.733 105.046C62.42 105.795 61.997 106.441 61.465 106.987L62.1815 107.685C62.8058 107.044 63.2969 106.291 63.6558 105.431L62.733 105.046ZM61.4674 106.985C60.9352 107.524 60.3085 107.954 59.5828 108.273L59.9856 109.188C60.8224 108.82 61.5551 108.32 62.1792 107.687L61.4674 106.985ZM59.585 108.272C58.8779 108.579 58.1141 108.734 57.2881 108.734V109.734C58.2434 109.734 59.1436 109.554 59.9834 109.189L59.585 108.272ZM57.2881 108.734C56.4706 108.734 55.706 108.579 54.9895 108.271L54.5945 109.19C55.4405 109.554 56.34 109.734 57.2881 109.734V108.734ZM54.9951 108.274C54.2765 107.954 53.6481 107.524 53.1065 106.982L52.3994 107.689C53.0297 108.32 53.7607 108.819 54.589 109.187L54.9951 108.274ZM53.1112 106.987C52.5793 106.441 52.1562 105.795 51.8433 105.046L50.9205 105.431C51.2794 106.291 51.7704 107.044 52.3947 107.685L53.1112 106.987ZM51.8439 105.047C51.5347 104.299 51.378 103.49 51.378 102.613H50.378C50.378 103.612 50.5572 104.552 50.9198 105.429L51.8439 105.047ZM51.378 102.613C51.378 101.72 51.5351 100.903 51.8439 100.156L50.9198 99.7738C50.5568 100.652 50.378 101.6 50.378 102.613H51.378ZM51.8439 100.156C52.1569 99.399 52.5792 98.7552 53.1089 98.2184L52.397 97.516C51.7705 98.151 51.2787 98.9057 50.9198 99.7738L51.8439 100.156ZM53.1089 98.2184C53.6494 97.6706 54.2757 97.242 54.9912 96.9313L54.5928 96.014C53.7614 96.3752 53.0284 96.8762 52.3971 97.516L53.1089 98.2184ZM54.9895 96.932C55.706 96.6239 56.4706 96.4688 57.2881 96.4688V95.4688C56.34 95.4688 55.4405 95.6495 54.5945 96.0133L54.9895 96.932ZM57.2881 96.4688C58.1173 96.4688 58.8839 96.6176 59.5929 96.9112L59.9755 95.9873C59.1376 95.6403 58.2402 95.4688 57.2881 95.4688V96.4688ZM59.5985 96.9135C60.3173 97.201 60.9387 97.6122 61.4674 98.148L62.1792 97.4457C61.5516 96.8097 60.8136 96.3225 59.9699 95.985L59.5985 96.9135ZM61.4697 98.1504C61.9971 98.6778 62.4187 99.3199 62.7317 100.084L63.6571 99.705C63.2981 98.8286 62.8057 98.0722 62.1768 97.4433L61.4697 98.1504ZM62.7323 100.086C63.04 100.83 63.1983 101.67 63.1983 102.613H64.1983C64.1983 101.557 64.0206 100.584 63.6564 99.7035L62.7323 100.086ZM60.9756 102.613C60.9756 102.042 60.8802 101.51 60.6796 101.027L59.756 101.41C59.8992 101.755 59.9756 102.154 59.9756 102.613H60.9756ZM60.6838 101.038C60.4977 100.559 60.2364 100.141 59.8964 99.7918L59.1799 100.489C59.418 100.734 59.6098 101.035 59.7518 101.4L60.6838 101.038ZM59.9009 99.7965C59.562 99.4394 59.1618 99.168 58.7043 98.985L58.3329 99.9135C58.6567 100.043 58.9361 100.233 59.1754 100.485L59.9009 99.7965ZM58.7156 98.9896C58.2674 98.7976 57.7899 98.7031 57.2881 98.7031V99.7031C57.6614 99.7031 58.0042 99.7727 58.3216 99.9088L58.7156 98.9896ZM57.2881 98.7031C56.7864 98.7031 56.3063 98.7976 55.8523 98.9882L56.2396 99.9102C56.5669 99.7727 56.9149 99.7031 57.2881 99.7031V98.7031ZM55.857 98.9863C55.4074 99.1698 55.0125 99.4412 54.6754 99.7965L55.4009 100.485C55.6419 100.231 55.9188 100.041 56.2349 99.9121L55.857 98.9863ZM54.6751 99.7968C54.3448 100.145 54.0892 100.562 53.9042 101.038L54.8362 101.4C54.9793 101.032 55.1689 100.73 55.4011 100.484L54.6751 99.7968ZM53.9053 101.035C53.7147 101.516 53.6241 102.044 53.6241 102.613H54.6241C54.6241 102.151 54.6975 101.75 54.835 101.403L53.9053 101.035ZM53.6241 102.613C53.6241 103.155 53.7161 103.667 53.9053 104.145L54.835 103.777C54.6961 103.426 54.6241 103.04 54.6241 102.613H53.6241ZM53.9053 104.145C54.0904 104.612 54.3447 105.025 54.6707 105.378L55.4055 104.7C55.169 104.444 54.9781 104.138 54.835 103.777L53.9053 104.145ZM54.6754 105.383C55.0077 105.733 55.3947 106.012 55.8335 106.218L56.2584 105.313C55.9316 105.16 55.6467 104.954 55.4009 104.695L54.6754 105.383ZM55.8446 106.223C56.3003 106.424 56.7831 106.523 57.2881 106.523V105.523C56.9182 105.523 56.5729 105.451 56.2473 105.308L55.8446 106.223ZM57.2881 106.523C57.7899 106.523 58.2674 106.429 58.7156 106.237L58.3216 105.318C58.0042 105.454 57.6614 105.523 57.2881 105.523V106.523ZM58.7122 106.238C59.1633 106.049 59.5594 105.781 59.8964 105.435L59.1799 104.737C58.9387 104.985 58.6552 105.178 58.325 105.316L58.7122 106.238ZM59.8964 105.435C60.2364 105.086 60.4977 104.668 60.6838 104.189L59.7518 103.827C59.6098 104.192 59.418 104.493 59.1799 104.737L59.8964 105.435ZM60.6809 104.196C60.8798 103.708 60.9756 103.178 60.9756 102.613H59.9756C59.9756 103.064 59.8996 103.464 59.7548 103.819L60.6809 104.196ZM68.5273 108.566L68.3272 109.025L68.3317 109.027L68.5273 108.566ZM66.7344 107.359L66.3781 107.71L66.3835 107.716L66.7344 107.359ZM65.5273 105.566L65.0672 105.762L65.0691 105.767L65.5273 105.566ZM65.0938 99.6602H65.5938V99.1602H65.0938V99.6602ZM63.5352 99.6602H63.0352V100.16H63.5352V99.6602ZM63.5352 96.4727V95.9727H63.0352V96.4727H63.5352ZM65.0938 96.4727V96.9727H65.5938V96.4727H65.0938ZM65.0938 91.457V90.957H64.5938V91.457H65.0938ZM68.2812 91.457H68.7812V90.957H68.2812V91.457ZM68.2812 96.4727H67.7812V96.9727H68.2812V96.4727ZM73.1328 96.4727H73.6328V95.9727H73.1328V96.4727ZM73.1328 99.6602V100.16H73.6328V99.6602H73.1328ZM68.2812 99.6602V99.1602H67.7812V99.6602H68.2812ZM68.4688 104.336L68.0079 104.53L68.0098 104.534L68.4688 104.336ZM69.7578 105.625L69.5536 106.082L69.5638 106.086L69.7578 105.625ZM73.1328 105.812H73.6328V105.312H73.1328V105.812ZM73.1328 109V109.5H73.6328V109H73.1328ZM70.707 108.5C69.9976 108.5 69.3379 108.368 68.723 108.106L68.3317 109.027C69.0761 109.343 69.8696 109.5 70.707 109.5V108.5ZM68.7275 108.108C68.1024 107.835 67.5562 107.467 67.0852 107.003L66.3835 107.716C66.9438 108.267 67.5929 108.704 68.3272 109.025L68.7275 108.108ZM67.0906 107.009C66.6268 106.538 66.2586 105.991 65.9855 105.366L65.0691 105.767C65.3899 106.501 65.8263 107.15 66.3781 107.71L67.0906 107.009ZM65.9875 105.371C65.726 104.756 65.5938 104.096 65.5938 103.387H64.5938C64.5938 104.224 64.7506 105.018 65.0672 105.762L65.9875 105.371ZM65.5938 103.387V99.6602H64.5938V103.387H65.5938ZM65.0938 99.1602H63.5352V100.16H65.0938V99.1602ZM64.0352 99.6602V96.4727H63.0352V99.6602H64.0352ZM63.5352 96.9727H65.0938V95.9727H63.5352V96.9727ZM65.5938 96.4727V91.457H64.5938V96.4727H65.5938ZM65.0938 91.957H68.2812V90.957H65.0938V91.957ZM67.7812 91.457V96.4727H68.7812V91.457H67.7812ZM68.2812 96.9727H73.1328V95.9727H68.2812V96.9727ZM72.6328 96.4727V99.6602H73.6328V96.4727H72.6328ZM73.1328 99.1602H68.2812V100.16H73.1328V99.1602ZM67.7812 99.6602V103.387H68.7812V99.6602H67.7812ZM67.7812 103.387C67.7812 103.786 67.856 104.169 68.0079 104.53L68.9296 104.142C68.8315 103.909 68.7812 103.659 68.7812 103.387H67.7812ZM68.0098 104.534C68.1594 104.88 68.3667 105.187 68.6308 105.451L69.3379 104.744C69.1646 104.571 69.0281 104.37 68.9277 104.137L68.0098 104.534ZM68.6308 105.451C68.8949 105.715 69.204 105.925 69.5536 106.081L69.962 105.169C69.7179 105.059 69.5114 104.918 69.3379 104.744L68.6308 105.451ZM69.5638 106.086C69.9247 106.238 70.3074 106.312 70.707 106.312V105.312C70.4348 105.312 70.1847 105.262 69.9518 105.164L69.5638 106.086ZM70.707 106.312H73.1328V105.312H70.707V106.312ZM72.6328 105.812V109H73.6328V105.812H72.6328ZM73.1328 108.5H70.707V109.5H73.1328V108.5ZM77.5752 93.8711L77.1198 93.6641L77.1149 93.6758L77.5752 93.8711ZM77.1181 94.5508L77.4645 94.9116L77.4717 94.9043L77.1181 94.5508ZM76.4267 95.0078L76.622 95.4682L76.6285 95.4653L76.4267 95.0078ZM74.7509 95.0078L74.544 95.463L74.5522 95.4667L74.5606 95.4702L74.7509 95.0078ZM74.0713 94.5508L73.7106 94.897L73.7176 94.9044L73.725 94.9115L74.0713 94.5508ZM73.6142 93.8711L73.1538 94.0664L73.159 94.078L73.6142 93.8711ZM73.6142 92.2188L73.1567 92.0169L73.1539 92.0235L73.6142 92.2188ZM74.7509 91.082L74.9462 91.5424L74.9528 91.5395L74.7509 91.082ZM76.4267 91.082L76.2198 91.5372L76.228 91.5409L76.2363 91.5444L76.4267 91.082ZM77.1181 91.5391L76.7645 91.8927L76.7719 91.8998L77.1181 91.5391ZM77.5752 92.2188L77.1128 92.4091L77.1162 92.4175L77.12 92.4257L77.5752 92.2188ZM77.2002 109V109.5H77.7002V109H77.2002ZM73.9775 109H73.4775V109.5H73.9775V109ZM73.9775 96.4492V95.9492H73.4775V96.4492H73.9775ZM77.2002 96.4492H77.7002V95.9492H77.2002V96.4492ZM77.2509 93.0391C77.2509 93.2681 77.2062 93.4745 77.12 93.6642L78.0303 94.078C78.1785 93.7521 78.2509 93.4038 78.2509 93.0391H77.2509ZM77.1149 93.6758C77.0302 93.8753 76.9138 94.048 76.7646 94.1972L77.4717 94.9043C77.713 94.663 77.9013 94.3825 78.0354 94.0664L77.1149 93.6758ZM76.7719 94.1901C76.6216 94.3343 76.441 94.455 76.2249 94.5504L76.6285 95.4653C76.9437 95.3262 77.224 95.1423 77.4644 94.9115L76.7719 94.1901ZM76.2314 94.5475C76.0391 94.6291 75.8286 94.6719 75.5947 94.6719V95.6719C75.9546 95.6719 76.2988 95.6052 76.622 95.4681L76.2314 94.5475ZM75.5947 94.6719C75.3609 94.6719 75.1445 94.6291 74.9413 94.5455L74.5606 95.4702C74.8886 95.6052 75.2347 95.6719 75.5947 95.6719V94.6719ZM74.9578 94.5526C74.7491 94.4577 74.5702 94.3367 74.4175 94.1901L73.725 94.9115C73.9629 95.1399 74.2372 95.3235 74.544 95.463L74.9578 94.5526ZM74.4319 94.2045C74.2854 94.0518 74.1643 93.8729 74.0694 93.6642L73.159 94.078C73.2985 94.3849 73.4821 94.6591 73.7106 94.897L74.4319 94.2045ZM74.0745 93.6758C73.9929 93.4834 73.9502 93.2729 73.9502 93.0391H72.9502C72.9502 93.3989 73.0168 93.7431 73.1539 94.0664L74.0745 93.6758ZM73.9502 93.0391C73.9502 92.8149 73.9922 92.6081 74.0745 92.414L73.1539 92.0235C73.0175 92.3451 72.9502 92.6851 72.9502 93.0391H73.9502ZM74.0717 92.4206C74.1663 92.2061 74.285 92.0324 74.4248 91.8926L73.7177 91.1855C73.4825 91.4207 73.2965 91.7001 73.1568 92.0169L74.0717 92.4206ZM74.4248 91.8926C74.5741 91.7434 74.7467 91.627 74.9462 91.5423L74.5557 90.6217C74.2396 90.7558 73.9591 90.9441 73.7177 91.1855L74.4248 91.8926ZM74.9528 91.5395C75.1533 91.451 75.3657 91.4062 75.5947 91.4062V90.4062C75.2299 90.4062 74.8798 90.4787 74.5491 90.6246L74.9528 91.5395ZM75.5947 91.4062C75.8237 91.4062 76.0301 91.451 76.2198 91.5372L76.6336 90.6268C76.3077 90.4787 75.9594 90.4062 75.5947 90.4062V91.4062ZM76.2363 91.5444C76.4434 91.6296 76.6178 91.7458 76.7646 91.8926L77.4717 91.1855C77.2278 90.9417 76.9413 90.7532 76.6171 90.6197L76.2363 91.5444ZM76.7719 91.8998C76.9141 92.0363 77.0282 92.2037 77.1128 92.4091L78.0375 92.0284C77.9033 91.7025 77.7128 91.4169 77.4644 91.1784L76.7719 91.8998ZM77.12 92.4257C77.207 92.6171 77.2509 92.8199 77.2509 93.0391H78.2509C78.2509 92.6801 78.1777 92.336 78.0303 92.0118L77.12 92.4257ZM77.2002 108.5H73.9775V109.5H77.2002V108.5ZM74.4775 109V96.4492H73.4775V109H74.4775ZM73.9775 96.9492H77.2002V95.9492H73.9775V96.9492ZM76.7002 96.4492V109H77.7002V96.4492H76.7002ZM90.3144 105.238L90.7758 105.431L90.7764 105.429L90.3144 105.238ZM88.9433 107.336L89.2992 107.687L89.3015 107.685L88.9433 107.336ZM86.9042 108.73L87.1034 109.189L87.1056 109.188L86.9042 108.73ZM81.912 108.73L81.7089 109.187L81.7145 109.19L81.912 108.73ZM79.873 107.336L79.5147 107.685L79.5194 107.689L79.873 107.336ZM78.5019 105.238L78.0398 105.429L78.0405 105.431L78.5019 105.238ZM79.873 97.8672L79.5171 97.516L79.5171 97.516L79.873 97.8672ZM81.912 96.4727L81.7145 96.0133L81.7128 96.014L81.912 96.4727ZM86.9042 96.4492L86.7129 96.9112L86.7185 96.9135L86.9042 96.4492ZM88.9433 97.7969L88.5874 98.1481L88.5897 98.1504L88.9433 97.7969ZM90.3144 99.8945L89.8517 100.084L89.8523 100.086L90.3144 99.8945ZM87.3378 101.219L86.8717 101.4L86.876 101.41L87.3378 101.219ZM86.6581 100.141L86.2954 100.485L86.2999 100.489L86.6581 100.141ZM85.6386 99.4492L85.4416 99.9089L85.4529 99.9135L85.6386 99.4492ZM83.1659 99.4492L83.3549 99.9122L83.3596 99.9102L83.1659 99.4492ZM82.1581 100.141L81.7954 99.7965L81.7952 99.7968L82.1581 100.141ZM81.4902 101.219L81.955 101.403L81.9562 101.4L81.4902 101.219ZM82.1581 105.039L81.7907 105.378L81.7954 105.383L82.1581 105.039ZM83.1659 105.766L82.9534 106.218L82.9646 106.223L83.1659 105.766ZM85.6386 105.777L85.445 105.316L85.4416 105.318L85.6386 105.777ZM87.3378 104.008L86.8747 103.819L86.8718 103.827L87.3378 104.008ZM90.3183 102.613C90.3183 103.49 90.1616 104.299 89.8523 105.047L90.7764 105.429C91.1391 104.552 91.3183 103.612 91.3183 102.613H90.3183ZM89.853 105.046C89.54 105.795 89.117 106.441 88.585 106.987L89.3015 107.685C89.9258 107.044 90.4169 106.291 90.7758 105.431L89.853 105.046ZM88.5874 106.985C88.0552 107.524 87.4285 107.954 86.7029 108.273L87.1056 109.188C87.9424 108.82 88.6751 108.32 89.2992 107.687L88.5874 106.985ZM86.705 108.272C85.9979 108.579 85.2341 108.734 84.4081 108.734V109.734C85.3634 109.734 86.2636 109.554 87.1034 109.189L86.705 108.272ZM84.4081 108.734C83.5906 108.734 82.826 108.579 82.1095 108.271L81.7145 109.19C82.5605 109.554 83.46 109.734 84.4081 109.734V108.734ZM82.1151 108.274C81.3965 107.954 80.7681 107.524 80.2265 106.982L79.5194 107.689C80.1497 108.32 80.8807 108.819 81.709 109.187L82.1151 108.274ZM80.2312 106.987C79.6993 106.441 79.2763 105.795 78.9633 105.046L78.0405 105.431C78.3994 106.291 78.8904 107.044 79.5147 107.685L80.2312 106.987ZM78.9639 105.047C78.6547 104.299 78.498 103.49 78.498 102.613H77.498C77.498 103.612 77.6772 104.552 78.0398 105.429L78.9639 105.047ZM78.498 102.613C78.498 101.72 78.6551 100.903 78.9639 100.156L78.0398 99.7738C77.6768 100.652 77.498 101.6 77.498 102.613H78.498ZM78.9639 100.156C79.2769 99.399 79.6992 98.7552 80.2289 98.2184L79.5171 97.516C78.8905 98.151 78.3987 98.9057 78.0398 99.7738L78.9639 100.156ZM80.2289 98.2184C80.7694 97.6706 81.3958 97.242 82.1112 96.9313L81.7128 96.014C80.8814 96.3752 80.1484 96.8762 79.5171 97.516L80.2289 98.2184ZM82.1095 96.932C82.826 96.6239 83.5906 96.4688 84.4081 96.4688V95.4688C83.46 95.4688 82.5605 95.6495 81.7145 96.0133L82.1095 96.932ZM84.4081 96.4688C85.2374 96.4688 86.0039 96.6176 86.7129 96.9112L87.0955 95.9873C86.2576 95.6403 85.3602 95.4688 84.4081 95.4688V96.4688ZM86.7185 96.9135C87.4373 97.201 88.0587 97.6122 88.5874 98.148L89.2992 97.4457C88.6716 96.8097 87.9336 96.3225 87.0899 95.985L86.7185 96.9135ZM88.5897 98.1504C89.1171 98.6778 89.5387 99.3199 89.8517 100.084L90.7771 99.705C90.4181 98.8286 89.9257 98.0722 89.2968 97.4433L88.5897 98.1504ZM89.8523 100.086C90.16 100.83 90.3183 101.67 90.3183 102.613H91.3183C91.3183 101.557 91.1406 100.584 90.7764 99.7035L89.8523 100.086ZM88.0956 102.613C88.0956 102.042 88.0002 101.51 87.7996 101.027L86.876 101.41C87.0192 101.755 87.0956 102.154 87.0956 102.613H88.0956ZM87.8038 101.038C87.6177 100.559 87.3564 100.141 87.0164 99.7918L86.2999 100.489C86.538 100.734 86.7298 101.035 86.8718 101.4L87.8038 101.038ZM87.0209 99.7965C86.6821 99.4394 86.2818 99.168 85.8243 98.985L85.4529 99.9135C85.7767 100.043 86.0561 100.233 86.2954 100.485L87.0209 99.7965ZM85.8356 98.9896C85.3874 98.7976 84.9099 98.7031 84.4081 98.7031V99.7031C84.7814 99.7031 85.1242 99.7727 85.4416 99.9088L85.8356 98.9896ZM84.4081 98.7031C83.9064 98.7031 83.4263 98.7976 82.9723 98.9882L83.3596 99.9102C83.6869 99.7727 84.0349 99.7031 84.4081 99.7031V98.7031ZM82.977 98.9863C82.5274 99.1698 82.1325 99.4412 81.7954 99.7965L82.5209 100.485C82.7619 100.231 83.0388 100.041 83.3549 99.9121L82.977 98.9863ZM81.7952 99.7968C81.4648 100.145 81.2092 100.562 81.0242 101.038L81.9562 101.4C82.0993 101.032 82.2889 100.73 82.5211 100.484L81.7952 99.7968ZM81.0253 101.035C80.8347 101.516 80.7441 102.044 80.7441 102.613H81.7441C81.7441 102.151 81.8175 101.75 81.955 101.403L81.0253 101.035ZM80.7441 102.613C80.7441 103.155 80.8361 103.667 81.0253 104.145L81.955 103.777C81.8161 103.426 81.7441 103.04 81.7441 102.613H80.7441ZM81.0253 104.145C81.2104 104.612 81.4647 105.025 81.7907 105.378L82.5255 104.7C82.289 104.444 82.0981 104.138 81.955 103.777L81.0253 104.145ZM81.7954 105.383C82.1277 105.733 82.5147 106.012 82.9535 106.218L83.3784 105.313C83.0516 105.16 82.7667 104.954 82.5209 104.695L81.7954 105.383ZM82.9646 106.223C83.4203 106.424 83.9031 106.523 84.4081 106.523V105.523C84.0382 105.523 83.6929 105.451 83.3673 105.308L82.9646 106.223ZM84.4081 106.523C84.9099 106.523 85.3874 106.429 85.8356 106.237L85.4416 105.318C85.1242 105.454 84.7814 105.523 84.4081 105.523V106.523ZM85.8322 106.238C86.2833 106.049 86.6794 105.781 87.0164 105.435L86.2999 104.737C86.0587 104.985 85.7752 105.178 85.445 105.316L85.8322 106.238ZM87.0164 105.435C87.3564 105.086 87.6177 104.668 87.8038 104.189L86.8718 103.827C86.7298 104.192 86.538 104.493 86.2999 104.737L87.0164 105.435ZM87.8009 104.196C87.9998 103.708 88.0956 103.178 88.0956 102.613H87.0956C87.0956 103.064 87.0196 103.464 86.8748 103.819L87.8009 104.196ZM94.827 109V109.5H95.327V109H94.827ZM91.6278 109H91.1278V109.5H91.6278V109ZM91.6278 96.4492V95.9492H91.1278V96.4492H91.6278ZM92.4012 96.4492L92.7793 96.122L92.6298 95.9492H92.4012V96.4492ZM93.4559 97.668L93.0778 97.9952L93.4131 98.3826L93.7923 98.0379L93.4559 97.668ZM95.202 96.5898L95.3819 97.0564L95.3849 97.0552L95.202 96.5898ZM99.4208 96.6484L99.2206 97.1067L99.2251 97.1086L99.4208 96.6484ZM101.202 97.8555L100.846 98.2063L100.848 98.209L101.202 97.8555ZM102.397 99.6484L101.936 99.8423L101.939 99.8486L102.397 99.6484ZM102.843 109V109.5H103.343V109H102.843ZM99.6434 109H99.1434V109.5H99.6434V109ZM99.4559 100.902L98.9951 101.096L98.997 101.101L99.4559 100.902ZM95.0145 100.902L95.4735 101.101L95.4753 101.096L95.0145 100.902ZM94.827 108.5H91.6278V109.5H94.827V108.5ZM92.1278 109V96.4492H91.1278V109H92.1278ZM91.6278 96.9492H92.4012V95.9492H91.6278V96.9492ZM92.0232 96.7764L93.0778 97.9952L93.834 97.3408L92.7793 96.122L92.0232 96.7764ZM93.7923 98.0379C94.2623 97.6107 94.7913 97.2841 95.3819 97.0564L95.0222 96.1233C94.3159 96.3956 93.6808 96.7878 93.1196 97.298L93.7923 98.0379ZM95.3849 97.0552C95.9824 96.8205 96.6039 96.7031 97.2528 96.7031V95.7031C96.4798 95.7031 95.7342 95.8436 95.0192 96.1245L95.3849 97.0552ZM97.2528 96.7031C97.9518 96.7031 98.6061 96.8382 99.2206 97.1066L99.6209 96.1902C98.876 95.8649 98.085 95.7031 97.2528 95.7031V96.7031ZM99.2251 97.1086C99.8459 97.3726 100.385 97.7382 100.846 98.2063L101.558 97.5046C101.004 96.9415 100.355 96.5024 99.6165 96.1883L99.2251 97.1086ZM100.848 98.209C101.309 98.6693 101.671 99.2121 101.936 99.8422L102.858 99.4546C102.545 98.7098 102.111 98.0573 101.556 97.5019L100.848 98.209ZM101.939 99.8486C102.207 100.462 102.343 101.121 102.343 101.828H103.343C103.343 100.989 103.181 100.194 102.856 99.4483L101.939 99.8486ZM102.343 101.828V109H103.343V101.828H102.343ZM102.843 108.5H99.6434V109.5H102.843V108.5ZM100.143 109V101.828H99.1434V109H100.143ZM100.143 101.828C100.143 101.435 100.068 101.058 99.9149 100.704L98.997 101.101C99.0938 101.325 99.1434 101.565 99.1434 101.828H100.143ZM99.9168 100.708C99.7677 100.354 99.5602 100.042 99.2939 99.7754L98.5868 100.482C98.7579 100.654 98.8942 100.857 98.9951 101.096L99.9168 100.708ZM99.2939 99.7754C99.0297 99.5112 98.7229 99.3039 98.377 99.1544L97.9801 100.072C98.2124 100.173 98.4134 100.309 98.5868 100.482L99.2939 99.7754ZM98.377 99.1544C98.0227 99.0011 97.6463 98.9258 97.2528 98.9258V99.9258C97.5156 99.9258 97.7564 99.9754 97.9801 100.072L98.377 99.1544ZM97.2528 98.9258C96.8531 98.9258 96.4705 99.0005 96.1096 99.1525L96.4976 100.074C96.7304 99.9761 96.9806 99.9258 97.2528 99.9258V98.9258ZM96.1096 99.1525C95.7556 99.3015 95.443 99.509 95.1766 99.7754L95.8837 100.482C96.0548 100.311 96.2579 100.175 96.4976 100.074L96.1096 99.1525ZM95.1766 99.7754C94.9102 100.042 94.7028 100.354 94.5537 100.708L95.4753 101.096C95.5763 100.857 95.7126 100.654 95.8837 100.482L95.1766 99.7754ZM94.5556 100.704C94.4024 101.058 94.327 101.435 94.327 101.828H95.327C95.327 101.565 95.3767 101.325 95.4735 101.101L94.5556 100.704ZM94.327 101.828V109H95.327V101.828H94.327Z" fill="white"/>
<path d="M44.9585 24.5137V54.7832H60.0933C62.1675 54.7832 64.1186 54.3965 65.9468 53.623C67.7749 52.8145 69.3745 51.7246 70.7456 50.3535C72.1167 48.9824 73.189 47.3828 73.9624 45.5547C74.771 43.6914 75.1753 41.7227 75.1753 39.6484C75.1753 37.5742 74.771 35.623 73.9624 33.7949C73.189 31.9316 72.1167 30.3145 70.7456 28.9434C69.3745 27.5723 67.7749 26.5 65.9468 25.7266C64.1186 24.918 62.1675 24.5137 60.0933 24.5137H44.9585ZM44.9585 85H29.8237V9.37891H60.0933C62.8706 9.37891 65.5425 9.74805 68.1089 10.4863C70.6753 11.1895 73.0659 12.209 75.2808 13.5449C77.5308 14.8457 79.5698 16.4277 81.3979 18.291C83.2612 20.1191 84.8433 22.1582 86.144 24.4082C87.48 26.6582 88.4995 29.0664 89.2026 31.6328C89.9409 34.1992 90.3101 36.8711 90.3101 39.6484C90.3101 42.25 89.9761 44.7812 89.3081 47.2422C88.6753 49.7031 87.7436 52.041 86.5132 54.2559C85.3179 56.4707 83.8413 58.5098 82.0835 60.373C80.3257 62.2363 78.3569 63.8535 76.1772 65.2246L84.562 85H68.478L61.8862 69.7598L44.9585 69.8652V85Z" fill="#00DD31"/>
<g clip-path="url(#clip0_2_1115)">
<path d="M58.4706 48.5625C54.1512 48.5625 49.4912 45.8281 49.4912 39.8281C49.4912 33.8281 54.1512 31.0938 58.4706 31.0938C60.8702 31.0938 63.0841 31.8906 64.7252 33.3437C66.5055 34.9375 67.4499 37.1875 67.4499 39.8281C67.4499 42.4688 66.5055 44.7031 64.7252 46.2969C63.0841 47.75 60.8547 48.5625 58.4706 48.5625Z" fill="#FDE030"/>
<path d="M56.2039 38.8892C56.2039 38.8892 56.1961 38.8782 56.1791 38.8579C56.1636 38.8376 56.1419 38.8095 56.1141 38.7735C56.0908 38.7485 56.063 38.7188 56.0305 38.6845C55.998 38.647 55.9577 38.6079 55.9175 38.5673C55.8757 38.5282 55.8323 38.4876 55.7874 38.4548C55.7441 38.4188 55.6961 38.3923 55.6574 38.3704C55.6171 38.3454 55.58 38.3392 55.5567 38.3313C55.5443 38.3267 55.5335 38.3267 55.5242 38.3251C55.5196 38.3267 55.5149 38.3235 55.5103 38.3251L55.5041 38.3267H55.501H55.4994C55.518 38.3267 55.4576 38.3282 55.5412 38.3251L55.4561 38.3282C55.4344 38.3282 55.4484 38.3298 55.4499 38.3298C55.4546 38.3298 55.4576 38.3298 55.4607 38.3282C55.4731 38.3235 55.4607 38.3282 55.4576 38.3282C55.453 38.3282 55.4468 38.3298 55.4406 38.3329C55.4158 38.3407 55.3787 38.347 55.34 38.372C55.3013 38.3938 55.2533 38.4204 55.2099 38.4563C55.1666 38.4907 55.1217 38.5298 55.0799 38.5688C54.9994 38.6485 54.9282 38.7282 54.8786 38.786C54.8275 38.8454 54.7997 38.8798 54.7997 38.8798L54.7641 38.922C54.552 39.172 54.1618 39.2142 53.894 39.0173C53.7113 38.8829 53.6324 38.6735 53.6664 38.4735C53.6664 38.4735 53.6773 38.4095 53.7082 38.2985C53.7407 38.1876 53.7949 38.0298 53.9017 37.8438C54.0086 37.6595 54.1634 37.4423 54.425 37.2438C54.5535 37.147 54.7099 37.0501 54.8957 36.9845C54.9406 36.9673 54.9886 36.9517 55.0381 36.9392C55.0892 36.9267 55.1294 36.9126 55.1991 36.9032L55.2951 36.8892C55.3245 36.886 55.3679 36.8813 55.374 36.8813L55.4592 36.8751L55.5072 36.8735H55.5118H55.5211L55.5412 36.8751H55.5784L55.6574 36.8798C55.71 36.8845 55.7611 36.8938 55.8122 36.9017C55.9128 36.9204 56.0134 36.947 56.1048 36.9813C56.2906 37.047 56.4469 37.1423 56.5754 37.2407C56.8371 37.4392 56.9919 37.6563 57.0987 37.8407C57.1529 37.9329 57.1931 38.0204 57.2226 38.097C57.2551 38.1704 57.2783 38.2485 57.2969 38.3063C57.3139 38.3626 57.3139 38.3923 57.3216 38.4188C57.3263 38.4438 57.3278 38.4579 57.3278 38.4579C57.3851 38.7735 57.1544 39.072 56.8154 39.1235C56.5723 39.1626 56.3386 39.0642 56.2039 38.8892Z" fill="#422B0D"/>
<path d="M62.3192 38.8892C62.3192 38.8892 62.3114 38.8782 62.2944 38.8579C62.2789 38.8376 62.2573 38.8095 62.2294 38.7735C62.2062 38.7485 62.1783 38.7188 62.1458 38.6845C62.1133 38.647 62.073 38.6079 62.0328 38.5673C61.991 38.5282 61.9476 38.4876 61.9027 38.4548C61.8594 38.4188 61.8114 38.3923 61.7727 38.3704C61.7324 38.3454 61.6953 38.3392 61.672 38.3313C61.6597 38.3267 61.6488 38.3267 61.6395 38.3251C61.6349 38.3267 61.6302 38.3235 61.6256 38.3251L61.6194 38.3267H61.6163H61.6148H61.6132C61.6318 38.3267 61.5714 38.3282 61.655 38.3251L61.5699 38.3282C61.5482 38.3282 61.5621 38.3298 61.5637 38.3298C61.5683 38.3298 61.5714 38.3298 61.5745 38.3282C61.5869 38.3235 61.5745 38.3282 61.5714 38.3282C61.5668 38.3282 61.5606 38.3298 61.5544 38.3329C61.5296 38.3407 61.4925 38.347 61.4538 38.372C61.4151 38.3938 61.3671 38.4204 61.3237 38.4563C61.2804 38.4907 61.2355 38.5298 61.1937 38.5688C61.1132 38.6485 61.0419 38.7282 60.9924 38.786C60.9413 38.8454 60.9134 38.8798 60.9134 38.8798L60.8778 38.922C60.6657 39.172 60.2756 39.2142 60.0078 39.0173C59.8251 38.8829 59.7461 38.6735 59.7802 38.4735C59.7802 38.4735 59.791 38.4095 59.822 38.2985C59.8545 38.1876 59.9087 38.0298 60.0155 37.8438C60.1223 37.6595 60.2772 37.4423 60.5388 37.2438C60.6673 37.147 60.8237 37.0501 61.0094 36.9845C61.0543 36.9673 61.1023 36.9517 61.1519 36.9392C61.203 36.9267 61.2432 36.9126 61.3129 36.9032L61.4089 36.8892C61.4383 36.886 61.4816 36.8813 61.4878 36.8813L61.573 36.8751L61.621 36.8735H61.6256H61.6349L61.655 36.8751H61.6922L61.7711 36.8798C61.8238 36.8845 61.8749 36.8938 61.9259 36.9017C62.0266 36.9204 62.1272 36.947 62.2186 36.9813C62.4043 37.047 62.5607 37.1423 62.6892 37.2407C62.9508 37.4392 63.1057 37.6563 63.2125 37.8407C63.2667 37.9329 63.3069 38.0204 63.3363 38.097C63.3688 38.1704 63.3921 38.2485 63.4106 38.3063C63.4277 38.3626 63.4277 38.3923 63.4354 38.4188C63.4401 38.4438 63.4416 38.4579 63.4416 38.4579C63.4989 38.7735 63.2682 39.072 62.9292 39.1235C62.6861 39.1626 62.4523 39.0642 62.3192 38.8892Z" fill="#422B0D"/>
<path d="M58.5356 44.686C56.5896 44.686 55.0507 43.7563 54.2023 42.761C54.1171 42.661 54.097 42.5267 54.1512 42.4095C54.2054 42.2892 54.323 42.211 54.45 42.211C54.5073 42.211 54.5661 42.2267 54.6172 42.2563C55.4919 42.7657 56.9611 43.3954 58.531 43.3954H58.5557C60.1271 43.3954 61.5948 42.7642 62.4695 42.2563C62.5221 42.2267 62.5794 42.2095 62.6367 42.211C62.7636 42.211 62.8813 42.2892 62.9355 42.4095C62.9881 42.5267 62.9695 42.6626 62.8844 42.761C62.036 43.7548 60.4956 44.686 58.5511 44.686" fill="#422B0D"/>
</g>
<defs>
<clipPath id="clip0_2_1115">
<rect width="19.8165" height="20" fill="white" transform="translate(48.624 30)"/>
</clipPath>
</defs>
</svg>
