<svg width="108" height="121" viewBox="0 0 108 121" fill="none" xmlns="http://www.w3.org/2000/svg">
<path d="M25.1691 109H13.6495V92.1953H25.1691V95.5586H17.0128V98.9219H22.5323V102.285H17.0128V105.637H25.1691V109ZM42.1856 109H38.9981V101.031C38.9981 100.812 38.9552 100.605 38.8692 100.41C38.7911 100.215 38.6778 100.043 38.5294 99.8945C38.3809 99.7461 38.2091 99.6328 38.0138 99.5547C37.8184 99.4688 37.6114 99.4258 37.3927 99.4258C37.1739 99.4258 36.9669 99.4688 36.7716 99.5547C36.5841 99.6328 36.4161 99.7461 36.2677 99.8945C36.127 100.043 36.0138 100.215 35.9278 100.41C35.8497 100.605 35.8106 100.812 35.8106 101.031V109H32.6114V101.031C32.6114 100.812 32.5684 100.605 32.4825 100.41C32.4044 100.215 32.2911 100.043 32.1427 99.8945C31.9942 99.7461 31.8223 99.6328 31.627 99.5547C31.4317 99.4688 31.2247 99.4258 31.0059 99.4258C30.7872 99.4258 30.5802 99.4688 30.3848 99.5547C30.1973 99.6328 30.0294 99.7461 29.8809 99.8945C29.7403 100.043 29.627 100.215 29.5411 100.41C29.463 100.605 29.4239 100.812 29.4239 101.031V109H26.2247V96.4492H26.9981L27.8653 97.4102C28.3106 97.0352 28.7989 96.7461 29.3302 96.543C29.8692 96.332 30.4278 96.2266 31.0059 96.2266C31.5919 96.2266 32.1622 96.3359 32.7169 96.5547C33.2794 96.7734 33.7716 97.1523 34.1934 97.6914C34.3888 97.4258 34.6114 97.1992 34.8614 97.0117C35.1114 96.8242 35.3731 96.6719 35.6466 96.5547C35.9278 96.4375 36.2169 96.3555 36.5138 96.3086C36.8106 96.2539 37.1036 96.2266 37.3927 96.2266C38.0567 96.2266 38.6778 96.3516 39.2559 96.6016C39.8419 96.8516 40.3497 97.1953 40.7794 97.6328C41.2169 98.0625 41.5606 98.5703 41.8106 99.1562C42.0606 99.7422 42.1856 100.367 42.1856 101.031V109ZM55.6983 102.613C55.6983 103.551 55.5303 104.426 55.1944 105.238C54.8584 106.043 54.4014 106.742 53.8233 107.336C53.2452 107.922 52.5655 108.387 51.7842 108.73C51.0108 109.066 50.1787 109.234 49.2881 109.234C48.4053 109.234 47.5733 109.066 46.792 108.73C46.0186 108.387 45.3389 107.922 44.753 107.336C44.1748 106.742 43.7178 106.043 43.3819 105.238C43.0459 104.426 42.878 103.551 42.878 102.613C42.878 101.66 43.0459 100.777 43.3819 99.9648C43.7178 99.1523 44.1748 98.4531 44.753 97.8672C45.3389 97.2734 46.0186 96.8086 46.792 96.4727C47.5733 96.1367 48.4053 95.9688 49.2881 95.9688C50.1787 95.9688 51.0108 96.1289 51.7842 96.4492C52.5655 96.7617 53.2452 97.2109 53.8233 97.7969C54.4014 98.375 54.8584 99.0742 55.1944 99.8945C55.5303 100.707 55.6983 101.613 55.6983 102.613ZM52.4756 102.613C52.4756 102.098 52.3897 101.633 52.2178 101.219C52.0537 100.797 51.8272 100.438 51.5381 100.141C51.2491 99.8359 50.9092 99.6055 50.5186 99.4492C50.1358 99.2852 49.7256 99.2031 49.2881 99.2031C48.8506 99.2031 48.4366 99.2852 48.0459 99.4492C47.6631 99.6055 47.3272 99.8359 47.0381 100.141C46.7569 100.438 46.5342 100.797 46.3702 101.219C46.2061 101.633 46.1241 102.098 46.1241 102.613C46.1241 103.098 46.2061 103.547 46.3702 103.961C46.5342 104.375 46.7569 104.734 47.0381 105.039C47.3272 105.344 47.6631 105.586 48.0459 105.766C48.4366 105.938 48.8506 106.023 49.2881 106.023C49.7256 106.023 50.1358 105.941 50.5186 105.777C50.9092 105.613 51.2491 105.383 51.5381 105.086C51.8272 104.789 52.0537 104.43 52.2178 104.008C52.3897 103.586 52.4756 103.121 52.4756 102.613ZM62.707 109C61.9336 109 61.207 108.855 60.5273 108.566C59.8477 108.27 59.25 107.867 58.7344 107.359C58.2266 106.844 57.8242 106.246 57.5273 105.566C57.2383 104.887 57.0938 104.16 57.0938 103.387V99.6602H55.5352V96.4727H57.0938V91.457H60.2812V96.4727H65.1328V99.6602H60.2812V103.387C60.2812 103.723 60.3438 104.039 60.4688 104.336C60.5938 104.625 60.7656 104.879 60.9844 105.098C61.2031 105.316 61.4609 105.492 61.7578 105.625C62.0547 105.75 62.3711 105.812 62.707 105.812H65.1328V109H62.707Z" fill="#00DD31"/>
<path d="M69.7509 93.0391C69.7509 93.3359 69.6923 93.6133 69.5752 93.8711C69.4658 94.1289 69.3134 94.3555 69.1181 94.5508C68.9228 94.7383 68.6923 94.8906 68.4267 95.0078C68.1689 95.1172 67.8916 95.1719 67.5947 95.1719C67.2978 95.1719 67.0166 95.1172 66.7509 95.0078C66.4931 94.8906 66.2666 94.7383 66.0713 94.5508C65.8838 94.3555 65.7314 94.1289 65.6142 93.8711C65.5048 93.6133 65.4502 93.3359 65.4502 93.0391C65.4502 92.75 65.5048 92.4766 65.6142 92.2188C65.7314 91.9531 65.8838 91.7266 66.0713 91.5391C66.2666 91.3438 66.4931 91.1914 66.7509 91.082C67.0166 90.9648 67.2978 90.9062 67.5947 90.9062C67.8916 90.9062 68.1689 90.9648 68.4267 91.082C68.6923 91.1914 68.9228 91.3438 69.1181 91.5391C69.3134 91.7266 69.4658 91.9531 69.5752 92.2188C69.6923 92.4766 69.7509 92.75 69.7509 93.0391ZM69.2002 109H65.9775V96.4492H69.2002V109ZM82.8183 102.613C82.8183 103.551 82.6503 104.426 82.3144 105.238C81.9784 106.043 81.5214 106.742 80.9433 107.336C80.3652 107.922 79.6855 108.387 78.9042 108.73C78.1308 109.066 77.2988 109.234 76.4081 109.234C75.5253 109.234 74.6933 109.066 73.912 108.73C73.1386 108.387 72.4589 107.922 71.873 107.336C71.2948 106.742 70.8378 106.043 70.5019 105.238C70.1659 104.426 69.998 103.551 69.998 102.613C69.998 101.66 70.1659 100.777 70.5019 99.9648C70.8378 99.1523 71.2948 98.4531 71.873 97.8672C72.4589 97.2734 73.1386 96.8086 73.912 96.4727C74.6933 96.1367 75.5253 95.9688 76.4081 95.9688C77.2988 95.9688 78.1308 96.1289 78.9042 96.4492C79.6855 96.7617 80.3652 97.2109 80.9433 97.7969C81.5214 98.375 81.9784 99.0742 82.3144 99.8945C82.6503 100.707 82.8183 101.613 82.8183 102.613ZM79.5956 102.613C79.5956 102.098 79.5097 101.633 79.3378 101.219C79.1738 100.797 78.9472 100.438 78.6581 100.141C78.3691 99.8359 78.0292 99.6055 77.6386 99.4492C77.2558 99.2852 76.8456 99.2031 76.4081 99.2031C75.9706 99.2031 75.5566 99.2852 75.1659 99.4492C74.7831 99.6055 74.4472 99.8359 74.1581 100.141C73.8769 100.438 73.6542 100.797 73.4902 101.219C73.3261 101.633 73.2441 102.098 73.2441 102.613C73.2441 103.098 73.3261 103.547 73.4902 103.961C73.6542 104.375 73.8769 104.734 74.1581 105.039C74.4472 105.344 74.7831 105.586 75.1659 105.766C75.5566 105.938 75.9706 106.023 76.4081 106.023C76.8456 106.023 77.2558 105.941 77.6386 105.777C78.0292 105.613 78.3691 105.383 78.6581 105.086C78.9472 104.789 79.1738 104.43 79.3378 104.008C79.5097 103.586 79.5956 103.121 79.5956 102.613ZM86.827 109H83.6278V96.4492H84.4012L85.4559 97.668C85.9716 97.1992 86.5536 96.8398 87.202 96.5898C87.8583 96.332 88.5419 96.2031 89.2528 96.2031C90.0184 96.2031 90.7411 96.3516 91.4208 96.6484C92.1005 96.9375 92.6942 97.3398 93.202 97.8555C93.7098 98.3633 94.1083 98.9609 94.3973 99.6484C94.6942 100.328 94.8427 101.055 94.8427 101.828V109H91.6434V101.828C91.6434 101.5 91.5809 101.191 91.4559 100.902C91.3309 100.605 91.1591 100.348 90.9403 100.129C90.7216 99.9102 90.4677 99.7383 90.1786 99.6133C89.8895 99.4883 89.5809 99.4258 89.2528 99.4258C88.9169 99.4258 88.6005 99.4883 88.3036 99.6133C88.0067 99.7383 87.7489 99.9102 87.5302 100.129C87.3114 100.348 87.1395 100.605 87.0145 100.902C86.8895 101.191 86.827 101.5 86.827 101.828V109Z" fill="#FDE030"/>
<path d="M25.1691 109V109.5H25.6691V109H25.1691ZM13.6495 109H13.1495V109.5H13.6495V109ZM13.6495 92.1953V91.6953H13.1495V92.1953H13.6495ZM25.1691 92.1953H25.6691V91.6953H25.1691V92.1953ZM25.1691 95.5586V96.0586H25.6691V95.5586H25.1691ZM17.0128 95.5586V95.0586H16.5128V95.5586H17.0128ZM17.0128 98.9219H16.5128V99.4219H17.0128V98.9219ZM22.5323 98.9219H23.0323V98.4219H22.5323V98.9219ZM22.5323 102.285V102.785H23.0323V102.285H22.5323ZM17.0128 102.285V101.785H16.5128V102.285H17.0128ZM17.0128 105.637H16.5128V106.137H17.0128V105.637ZM25.1691 105.637H25.6691V105.137H25.1691V105.637ZM25.1691 108.5H13.6495V109.5H25.1691V108.5ZM14.1495 109V92.1953H13.1495V109H14.1495ZM13.6495 92.6953H25.1691V91.6953H13.6495V92.6953ZM24.6691 92.1953V95.5586H25.6691V92.1953H24.6691ZM25.1691 95.0586H17.0128V96.0586H25.1691V95.0586ZM16.5128 95.5586V98.9219H17.5128V95.5586H16.5128ZM17.0128 99.4219H22.5323V98.4219H17.0128V99.4219ZM22.0323 98.9219V102.285H23.0323V98.9219H22.0323ZM22.5323 101.785H17.0128V102.785H22.5323V101.785ZM16.5128 102.285V105.637H17.5128V102.285H16.5128ZM17.0128 106.137H25.1691V105.137H17.0128V106.137ZM24.6691 105.637V109H25.6691V105.637H24.6691ZM42.1856 109V109.5H42.6856V109H42.1856ZM38.9981 109H38.4981V109.5H38.9981V109ZM38.8692 100.41L38.405 100.596L38.4081 100.604L38.4116 100.612L38.8692 100.41ZM38.0138 99.5547L37.8124 100.012L37.8202 100.016L37.8281 100.019L38.0138 99.5547ZM36.7716 99.5547L36.9639 100.016L36.9729 100.012L36.7716 99.5547ZM36.2677 99.8945L35.914 99.5408L35.9047 99.5507L36.2677 99.8945ZM35.9278 100.41L35.4702 100.209L35.4667 100.217L35.4636 100.224L35.9278 100.41ZM35.8106 109V109.5H36.3106V109H35.8106ZM32.6114 109H32.1114V109.5H32.6114V109ZM32.4825 100.41L32.0183 100.596L32.0214 100.604L32.0248 100.612L32.4825 100.41ZM31.627 99.5547L31.4257 100.012L31.4334 100.016L31.4413 100.019L31.627 99.5547ZM30.3848 99.5547L30.5772 100.016L30.5862 100.012L30.3848 99.5547ZM29.8809 99.8945L29.5273 99.5408L29.518 99.5507L29.8809 99.8945ZM29.5411 100.41L29.0834 100.209L29.08 100.217L29.0769 100.224L29.5411 100.41ZM29.4239 109V109.5H29.9239V109H29.4239ZM26.2247 109H25.7247V109.5H26.2247V109ZM26.2247 96.4492V95.9492H25.7247V96.4492H26.2247ZM26.9981 96.4492L27.3693 96.1142L27.2204 95.9492H26.9981V96.4492ZM27.8653 97.4102L27.4941 97.7451L27.8178 98.1038L28.1874 97.7926L27.8653 97.4102ZM29.3302 96.543L29.5087 97.01L29.5124 97.0086L29.3302 96.543ZM32.7169 96.5547L32.5334 97.0198L32.5357 97.0207L32.7169 96.5547ZM34.1934 97.6914L33.7997 97.9996L34.2059 98.5186L34.5963 97.9876L34.1934 97.6914ZM35.6466 96.5547L35.4542 96.0931L35.4496 96.0951L35.6466 96.5547ZM36.5138 96.3086L36.5918 96.8026L36.6043 96.8003L36.5138 96.3086ZM39.2559 96.6016L39.0575 97.0605L39.0597 97.0615L39.2559 96.6016ZM40.7794 97.6328L40.4226 97.9832L40.429 97.9895L40.7794 97.6328ZM42.1856 108.5H38.9981V109.5H42.1856V108.5ZM39.4981 109V101.031H38.4981V109H39.4981ZM39.4981 101.031C39.4981 100.745 39.4415 100.469 39.3269 100.209L38.4116 100.612C38.4689 100.742 38.4981 100.88 38.4981 101.031H39.4981ZM39.3335 100.224C39.2302 99.9664 39.0794 99.7374 38.8829 99.541L38.1758 100.248C38.2763 100.349 38.352 100.463 38.405 100.596L39.3335 100.224ZM38.8829 99.541C38.6865 99.3446 38.4575 99.1937 38.1994 99.0904L37.8281 100.019C37.9606 100.072 38.0754 100.148 38.1758 100.248L38.8829 99.541ZM38.2151 99.097C37.9547 98.9825 37.679 98.9258 37.3927 98.9258V99.9258C37.5439 99.9258 37.6821 99.955 37.8124 100.012L38.2151 99.097ZM37.3927 98.9258C37.1064 98.9258 36.8306 98.9825 36.5702 99.097L36.9729 100.012C37.1032 99.955 37.2415 99.9258 37.3927 99.9258V98.9258ZM36.5793 99.0931C36.3294 99.1972 36.1071 99.3479 35.9141 99.541L36.6212 100.248C36.725 100.144 36.8387 100.068 36.9639 100.016L36.5793 99.0931ZM35.9047 99.5507C35.7228 99.7426 35.5782 99.9632 35.4702 100.209L36.3855 100.612C36.4493 100.466 36.5312 100.343 36.6306 100.238L35.9047 99.5507ZM35.4636 100.224C35.3609 100.481 35.3106 100.751 35.3106 101.031H36.3106C36.3106 100.874 36.3385 100.73 36.3921 100.596L35.4636 100.224ZM35.3106 101.031V109H36.3106V101.031H35.3106ZM35.8106 108.5H32.6114V109.5H35.8106V108.5ZM33.1114 109V101.031H32.1114V109H33.1114ZM33.1114 101.031C33.1114 100.745 33.0547 100.469 32.9402 100.209L32.0248 100.612C32.0821 100.742 32.1114 100.88 32.1114 101.031H33.1114ZM32.9467 100.224C32.8435 99.9664 32.6926 99.7374 32.4962 99.541L31.7891 100.248C31.8896 100.349 31.9652 100.463 32.0183 100.596L32.9467 100.224ZM32.4962 99.541C32.2998 99.3446 32.0708 99.1937 31.8127 99.0904L31.4413 100.019C31.5739 100.072 31.6887 100.148 31.7891 100.248L32.4962 99.541ZM31.8284 99.097C31.568 98.9825 31.2922 98.9258 31.0059 98.9258V99.9258C31.1571 99.9258 31.2954 99.955 31.4257 100.012L31.8284 99.097ZM31.0059 98.9258C30.7196 98.9258 30.4439 98.9825 30.1835 99.097L30.5862 100.012C30.7164 99.955 30.8547 99.9258 31.0059 99.9258V98.9258ZM30.1925 99.0931C29.9427 99.1972 29.7204 99.3479 29.5274 99.541L30.2345 100.248C30.3383 100.144 30.452 100.068 30.5772 100.016L30.1925 99.0931ZM29.518 99.5507C29.3361 99.7426 29.1915 99.9632 29.0834 100.209L29.9988 100.612C30.0626 100.466 30.1445 100.343 30.2439 100.238L29.518 99.5507ZM29.0769 100.224C28.9742 100.481 28.9239 100.751 28.9239 101.031H29.9239C29.9239 100.874 29.9518 100.73 30.0053 100.596L29.0769 100.224ZM28.9239 101.031V109H29.9239V101.031H28.9239ZM29.4239 108.5H26.2247V109.5H29.4239V108.5ZM26.7247 109V96.4492H25.7247V109H26.7247ZM26.2247 96.9492H26.9981V95.9492H26.2247V96.9492ZM26.6269 96.7842L27.4941 97.7451L28.2365 97.0752L27.3693 96.1142L26.6269 96.7842ZM28.1874 97.7926C28.591 97.4528 29.0309 97.1927 29.5087 97.01L29.1516 96.0759C28.5669 96.2995 28.0303 96.6175 27.5432 97.0277L28.1874 97.7926ZM29.5124 97.0086C29.9934 96.8203 30.4902 96.7266 31.0059 96.7266V95.7266C30.3654 95.7266 29.745 95.8437 29.148 96.0773L29.5124 97.0086ZM31.0059 96.7266C31.528 96.7266 32.0361 96.8237 32.5334 97.0198L32.9003 96.0896C32.2883 95.8482 31.6558 95.7266 31.0059 95.7266V96.7266ZM32.5357 97.0207C33.0036 97.2027 33.4256 97.5216 33.7997 97.9996L34.5872 97.3833C34.1175 96.7831 33.5551 96.3442 32.8981 96.0887L32.5357 97.0207ZM34.5963 97.9876C34.7642 97.7592 34.9527 97.5683 35.1614 97.4117L34.5614 96.6117C34.2701 96.8302 34.0133 97.0923 33.7906 97.3952L34.5963 97.9876ZM35.1614 97.4117C35.3812 97.2469 35.6085 97.115 35.8435 97.0143L35.4496 96.0951C35.1378 96.2288 34.8417 96.4015 34.5614 96.6117L35.1614 97.4117ZM35.8389 97.0162C36.0839 96.9141 36.3347 96.8431 36.5917 96.8025L36.4358 95.8147C36.0991 95.8679 35.7717 95.9609 35.4543 96.0931L35.8389 97.0162ZM36.6043 96.8003C36.8726 96.7509 37.1353 96.7266 37.3927 96.7266V95.7266C37.0719 95.7266 36.7486 95.7569 36.4232 95.8169L36.6043 96.8003ZM37.3927 96.7266C37.9922 96.7266 38.5454 96.839 39.0575 97.0605L39.4544 96.1426C38.8102 95.8641 38.1212 95.7266 37.3927 95.7266V96.7266ZM39.0597 97.0615C39.5879 97.2868 40.0406 97.5941 40.4227 97.9832L41.1361 97.2825C40.6588 96.7965 40.0959 96.4163 39.4522 96.1417L39.0597 97.0615ZM40.429 97.9895C40.8181 98.3716 41.1254 98.8243 41.3507 99.3525L42.2705 98.96C41.9959 98.3163 41.6157 97.7534 41.1297 97.2761L40.429 97.9895ZM41.3507 99.3525C41.5731 99.8737 41.6856 100.432 41.6856 101.031H42.6856C42.6856 100.303 42.5481 99.6106 42.2705 98.96L41.3507 99.3525ZM41.6856 101.031V109H42.6856V101.031H41.6856ZM55.1944 105.238L55.6558 105.431L55.6564 105.429L55.1944 105.238ZM53.8233 107.336L54.1792 107.687L54.1815 107.685L53.8233 107.336ZM51.7842 108.73L51.9834 109.189L51.9856 109.188L51.7842 108.73ZM46.792 108.73L46.5889 109.187L46.5945 109.19L46.792 108.73ZM44.753 107.336L44.3947 107.685L44.3994 107.689L44.753 107.336ZM43.3819 105.238L42.9198 105.429L42.9205 105.431L43.3819 105.238ZM44.753 97.8672L44.3971 97.516L44.397 97.516L44.753 97.8672ZM46.792 96.4727L46.5945 96.0133L46.5928 96.014L46.792 96.4727ZM51.7842 96.4492L51.5929 96.9112L51.5985 96.9135L51.7842 96.4492ZM53.8233 97.7969L53.4674 98.1481L53.4697 98.1504L53.8233 97.7969ZM55.1944 99.8945L54.7317 100.084L54.7323 100.086L55.1944 99.8945ZM52.2178 101.219L51.7517 101.4L51.756 101.41L52.2178 101.219ZM51.5381 100.141L51.1754 100.485L51.1799 100.489L51.5381 100.141ZM50.5186 99.4492L50.3216 99.9089L50.3329 99.9135L50.5186 99.4492ZM48.0459 99.4492L48.2349 99.9122L48.2396 99.9102L48.0459 99.4492ZM47.0381 100.141L46.6754 99.7965L46.6751 99.7968L47.0381 100.141ZM46.3702 101.219L46.835 101.403L46.8362 101.4L46.3702 101.219ZM47.0381 105.039L46.6707 105.378L46.6754 105.383L47.0381 105.039ZM48.0459 105.766L47.8334 106.218L47.8446 106.223L48.0459 105.766ZM50.5186 105.777L50.325 105.316L50.3216 105.318L50.5186 105.777ZM52.2178 104.008L51.7547 103.819L51.7518 103.827L52.2178 104.008ZM55.1983 102.613C55.1983 103.49 55.0416 104.299 54.7323 105.047L55.6564 105.429C56.019 104.552 56.1983 103.612 56.1983 102.613H55.1983ZM54.733 105.046C54.42 105.795 53.997 106.441 53.465 106.987L54.1815 107.685C54.8058 107.044 55.2969 106.291 55.6558 105.431L54.733 105.046ZM53.4674 106.985C52.9352 107.524 52.3085 107.954 51.5828 108.273L51.9856 109.188C52.8224 108.82 53.5551 108.32 54.1792 107.687L53.4674 106.985ZM51.585 108.272C50.8779 108.579 50.1141 108.734 49.2881 108.734V109.734C50.2434 109.734 51.1436 109.554 51.9834 109.189L51.585 108.272ZM49.2881 108.734C48.4706 108.734 47.706 108.579 46.9895 108.271L46.5945 109.19C47.4405 109.554 48.34 109.734 49.2881 109.734V108.734ZM46.9951 108.274C46.2765 107.954 45.6481 107.524 45.1065 106.982L44.3994 107.689C45.0297 108.32 45.7607 108.819 46.589 109.187L46.9951 108.274ZM45.1112 106.987C44.5793 106.441 44.1562 105.795 43.8433 105.046L42.9205 105.431C43.2794 106.291 43.7704 107.044 44.3947 107.685L45.1112 106.987ZM43.8439 105.047C43.5347 104.299 43.378 103.49 43.378 102.613H42.378C42.378 103.612 42.5572 104.552 42.9198 105.429L43.8439 105.047ZM43.378 102.613C43.378 101.72 43.5351 100.903 43.8439 100.156L42.9198 99.7738C42.5568 100.652 42.378 101.6 42.378 102.613H43.378ZM43.8439 100.156C44.1569 99.399 44.5792 98.7552 45.1089 98.2184L44.397 97.516C43.7705 98.151 43.2787 98.9057 42.9198 99.7738L43.8439 100.156ZM45.1089 98.2184C45.6494 97.6706 46.2757 97.242 46.9912 96.9313L46.5928 96.014C45.7614 96.3752 45.0284 96.8762 44.3971 97.516L45.1089 98.2184ZM46.9895 96.932C47.706 96.6239 48.4706 96.4688 49.2881 96.4688V95.4688C48.34 95.4688 47.4405 95.6495 46.5945 96.0133L46.9895 96.932ZM49.2881 96.4688C50.1173 96.4688 50.8839 96.6176 51.5929 96.9112L51.9755 95.9873C51.1376 95.6403 50.2402 95.4688 49.2881 95.4688V96.4688ZM51.5985 96.9135C52.3173 97.201 52.9387 97.6122 53.4674 98.148L54.1792 97.4457C53.5516 96.8097 52.8136 96.3225 51.9699 95.985L51.5985 96.9135ZM53.4697 98.1504C53.9971 98.6778 54.4187 99.3199 54.7317 100.084L55.6571 99.705C55.2981 98.8286 54.8057 98.0722 54.1768 97.4433L53.4697 98.1504ZM54.7323 100.086C55.04 100.83 55.1983 101.67 55.1983 102.613H56.1983C56.1983 101.557 56.0206 100.584 55.6564 99.7035L54.7323 100.086ZM52.9756 102.613C52.9756 102.042 52.8802 101.51 52.6796 101.027L51.756 101.41C51.8992 101.755 51.9756 102.154 51.9756 102.613H52.9756ZM52.6838 101.038C52.4977 100.559 52.2364 100.141 51.8964 99.7918L51.1799 100.489C51.418 100.734 51.6098 101.035 51.7518 101.4L52.6838 101.038ZM51.9009 99.7965C51.562 99.4394 51.1618 99.168 50.7043 98.985L50.3329 99.9135C50.6567 100.043 50.9361 100.233 51.1754 100.485L51.9009 99.7965ZM50.7156 98.9896C50.2674 98.7976 49.7899 98.7031 49.2881 98.7031V99.7031C49.6614 99.7031 50.0042 99.7727 50.3216 99.9088L50.7156 98.9896ZM49.2881 98.7031C48.7864 98.7031 48.3063 98.7976 47.8523 98.9882L48.2396 99.9102C48.5669 99.7727 48.9149 99.7031 49.2881 99.7031V98.7031ZM47.857 98.9863C47.4074 99.1698 47.0125 99.4412 46.6754 99.7965L47.4009 100.485C47.6419 100.231 47.9188 100.041 48.2349 99.9121L47.857 98.9863ZM46.6751 99.7968C46.3448 100.145 46.0892 100.562 45.9042 101.038L46.8362 101.4C46.9793 101.032 47.1689 100.73 47.4011 100.484L46.6751 99.7968ZM45.9053 101.035C45.7147 101.516 45.6241 102.044 45.6241 102.613H46.6241C46.6241 102.151 46.6975 101.75 46.835 101.403L45.9053 101.035ZM45.6241 102.613C45.6241 103.155 45.7161 103.667 45.9053 104.145L46.835 103.777C46.6961 103.426 46.6241 103.04 46.6241 102.613H45.6241ZM45.9053 104.145C46.0904 104.612 46.3447 105.025 46.6707 105.378L47.4055 104.7C47.169 104.444 46.9781 104.138 46.835 103.777L45.9053 104.145ZM46.6754 105.383C47.0077 105.733 47.3947 106.012 47.8335 106.218L48.2584 105.313C47.9316 105.16 47.6467 104.954 47.4009 104.695L46.6754 105.383ZM47.8446 106.223C48.3003 106.424 48.7831 106.523 49.2881 106.523V105.523C48.9182 105.523 48.5729 105.451 48.2473 105.308L47.8446 106.223ZM49.2881 106.523C49.7899 106.523 50.2674 106.429 50.7156 106.237L50.3216 105.318C50.0042 105.454 49.6614 105.523 49.2881 105.523V106.523ZM50.7122 106.238C51.1633 106.049 51.5594 105.781 51.8964 105.435L51.1799 104.737C50.9387 104.985 50.6552 105.178 50.325 105.316L50.7122 106.238ZM51.8964 105.435C52.2364 105.086 52.4977 104.668 52.6838 104.189L51.7518 103.827C51.6098 104.192 51.418 104.493 51.1799 104.737L51.8964 105.435ZM52.6809 104.196C52.8798 103.708 52.9756 103.178 52.9756 102.613H51.9756C51.9756 103.064 51.8996 103.464 51.7548 103.819L52.6809 104.196ZM60.5273 108.566L60.3272 109.025L60.3317 109.027L60.5273 108.566ZM58.7344 107.359L58.3781 107.71L58.3835 107.716L58.7344 107.359ZM57.5273 105.566L57.0672 105.762L57.0691 105.767L57.5273 105.566ZM57.0938 99.6602H57.5938V99.1602H57.0938V99.6602ZM55.5352 99.6602H55.0352V100.16H55.5352V99.6602ZM55.5352 96.4727V95.9727H55.0352V96.4727H55.5352ZM57.0938 96.4727V96.9727H57.5938V96.4727H57.0938ZM57.0938 91.457V90.957H56.5938V91.457H57.0938ZM60.2812 91.457H60.7812V90.957H60.2812V91.457ZM60.2812 96.4727H59.7812V96.9727H60.2812V96.4727ZM65.1328 96.4727H65.6328V95.9727H65.1328V96.4727ZM65.1328 99.6602V100.16H65.6328V99.6602H65.1328ZM60.2812 99.6602V99.1602H59.7812V99.6602H60.2812ZM60.4688 104.336L60.0079 104.53L60.0098 104.534L60.4688 104.336ZM61.7578 105.625L61.5536 106.082L61.5638 106.086L61.7578 105.625ZM65.1328 105.812H65.6328V105.312H65.1328V105.812ZM65.1328 109V109.5H65.6328V109H65.1328ZM62.707 108.5C61.9976 108.5 61.3379 108.368 60.723 108.106L60.3317 109.027C61.0761 109.343 61.8696 109.5 62.707 109.5V108.5ZM60.7275 108.108C60.1024 107.835 59.5562 107.467 59.0852 107.003L58.3835 107.716C58.9438 108.267 59.5929 108.704 60.3272 109.025L60.7275 108.108ZM59.0906 107.009C58.6268 106.538 58.2586 105.991 57.9855 105.366L57.0691 105.767C57.3899 106.501 57.8263 107.15 58.3781 107.71L59.0906 107.009ZM57.9875 105.371C57.726 104.756 57.5938 104.096 57.5938 103.387H56.5938C56.5938 104.224 56.7506 105.018 57.0672 105.762L57.9875 105.371ZM57.5938 103.387V99.6602H56.5938V103.387H57.5938ZM57.0938 99.1602H55.5352V100.16H57.0938V99.1602ZM56.0352 99.6602V96.4727H55.0352V99.6602H56.0352ZM55.5352 96.9727H57.0938V95.9727H55.5352V96.9727ZM57.5938 96.4727V91.457H56.5938V96.4727H57.5938ZM57.0938 91.957H60.2812V90.957H57.0938V91.957ZM59.7812 91.457V96.4727H60.7812V91.457H59.7812ZM60.2812 96.9727H65.1328V95.9727H60.2812V96.9727ZM64.6328 96.4727V99.6602H65.6328V96.4727H64.6328ZM65.1328 99.1602H60.2812V100.16H65.1328V99.1602ZM59.7812 99.6602V103.387H60.7812V99.6602H59.7812ZM59.7812 103.387C59.7812 103.786 59.856 104.169 60.0079 104.53L60.9296 104.142C60.8315 103.909 60.7812 103.659 60.7812 103.387H59.7812ZM60.0098 104.534C60.1594 104.88 60.3667 105.187 60.6308 105.451L61.3379 104.744C61.1646 104.571 61.0281 104.37 60.9277 104.137L60.0098 104.534ZM60.6308 105.451C60.8949 105.715 61.204 105.925 61.5536 106.081L61.962 105.169C61.7179 105.059 61.5114 104.918 61.3379 104.744L60.6308 105.451ZM61.5638 106.086C61.9247 106.238 62.3074 106.312 62.707 106.312V105.312C62.4348 105.312 62.1847 105.262 61.9518 105.164L61.5638 106.086ZM62.707 106.312H65.1328V105.312H62.707V106.312ZM64.6328 105.812V109H65.6328V105.812H64.6328ZM65.1328 108.5H62.707V109.5H65.1328V108.5ZM69.5752 93.8711L69.1198 93.6641L69.1149 93.6758L69.5752 93.8711ZM69.1181 94.5508L69.4645 94.9116L69.4717 94.9043L69.1181 94.5508ZM68.4267 95.0078L68.622 95.4682L68.6285 95.4653L68.4267 95.0078ZM66.7509 95.0078L66.544 95.463L66.5522 95.4667L66.5606 95.4702L66.7509 95.0078ZM66.0713 94.5508L65.7106 94.897L65.7176 94.9044L65.725 94.9115L66.0713 94.5508ZM65.6142 93.8711L65.1538 94.0664L65.159 94.078L65.6142 93.8711ZM65.6142 92.2188L65.1567 92.0169L65.1539 92.0235L65.6142 92.2188ZM66.7509 91.082L66.9462 91.5424L66.9528 91.5395L66.7509 91.082ZM68.4267 91.082L68.2198 91.5372L68.228 91.5409L68.2363 91.5444L68.4267 91.082ZM69.1181 91.5391L68.7645 91.8927L68.7719 91.8998L69.1181 91.5391ZM69.5752 92.2188L69.1128 92.4091L69.1162 92.4175L69.12 92.4257L69.5752 92.2188ZM69.2002 109V109.5H69.7002V109H69.2002ZM65.9775 109H65.4775V109.5H65.9775V109ZM65.9775 96.4492V95.9492H65.4775V96.4492H65.9775ZM69.2002 96.4492H69.7002V95.9492H69.2002V96.4492ZM69.2509 93.0391C69.2509 93.2681 69.2062 93.4745 69.12 93.6642L70.0303 94.078C70.1785 93.7521 70.2509 93.4038 70.2509 93.0391H69.2509ZM69.1149 93.6758C69.0302 93.8753 68.9138 94.048 68.7646 94.1972L69.4717 94.9043C69.713 94.663 69.9013 94.3825 70.0354 94.0664L69.1149 93.6758ZM68.7719 94.1901C68.6216 94.3343 68.441 94.455 68.2249 94.5504L68.6285 95.4653C68.9437 95.3262 69.224 95.1423 69.4644 94.9115L68.7719 94.1901ZM68.2314 94.5475C68.0391 94.6291 67.8286 94.6719 67.5947 94.6719V95.6719C67.9546 95.6719 68.2988 95.6052 68.622 95.4681L68.2314 94.5475ZM67.5947 94.6719C67.3609 94.6719 67.1445 94.6291 66.9413 94.5455L66.5606 95.4702C66.8886 95.6052 67.2347 95.6719 67.5947 95.6719V94.6719ZM66.9578 94.5526C66.7491 94.4577 66.5702 94.3367 66.4175 94.1901L65.725 94.9115C65.9629 95.1399 66.2372 95.3235 66.544 95.463L66.9578 94.5526ZM66.4319 94.2045C66.2854 94.0518 66.1643 93.8729 66.0694 93.6642L65.159 94.078C65.2985 94.3849 65.4821 94.6591 65.7106 94.897L66.4319 94.2045ZM66.0745 93.6758C65.9929 93.4834 65.9502 93.2729 65.9502 93.0391H64.9502C64.9502 93.3989 65.0168 93.7431 65.1539 94.0664L66.0745 93.6758ZM65.9502 93.0391C65.9502 92.8149 65.9922 92.6081 66.0745 92.414L65.1539 92.0235C65.0175 92.3451 64.9502 92.6851 64.9502 93.0391H65.9502ZM66.0717 92.4206C66.1663 92.2061 66.285 92.0324 66.4248 91.8926L65.7177 91.1855C65.4825 91.4207 65.2965 91.7001 65.1568 92.0169L66.0717 92.4206ZM66.4248 91.8926C66.5741 91.7434 66.7467 91.627 66.9462 91.5423L66.5557 90.6217C66.2396 90.7558 65.9591 90.9441 65.7177 91.1855L66.4248 91.8926ZM66.9528 91.5395C67.1533 91.451 67.3657 91.4062 67.5947 91.4062V90.4062C67.2299 90.4062 66.8798 90.4787 66.5491 90.6246L66.9528 91.5395ZM67.5947 91.4062C67.8237 91.4062 68.0301 91.451 68.2198 91.5372L68.6336 90.6268C68.3077 90.4787 67.9594 90.4062 67.5947 90.4062V91.4062ZM68.2363 91.5444C68.4434 91.6296 68.6178 91.7458 68.7646 91.8926L69.4717 91.1855C69.2278 90.9417 68.9413 90.7532 68.6171 90.6197L68.2363 91.5444ZM68.7719 91.8998C68.9141 92.0363 69.0282 92.2037 69.1128 92.4091L70.0375 92.0284C69.9033 91.7025 69.7128 91.4169 69.4644 91.1784L68.7719 91.8998ZM69.12 92.4257C69.207 92.6171 69.2509 92.8199 69.2509 93.0391H70.2509C70.2509 92.6801 70.1777 92.336 70.0303 92.0118L69.12 92.4257ZM69.2002 108.5H65.9775V109.5H69.2002V108.5ZM66.4775 109V96.4492H65.4775V109H66.4775ZM65.9775 96.9492H69.2002V95.9492H65.9775V96.9492ZM68.7002 96.4492V109H69.7002V96.4492H68.7002ZM82.3144 105.238L82.7758 105.431L82.7764 105.429L82.3144 105.238ZM80.9433 107.336L81.2992 107.687L81.3015 107.685L80.9433 107.336ZM78.9042 108.73L79.1034 109.189L79.1056 109.188L78.9042 108.73ZM73.912 108.73L73.7089 109.187L73.7145 109.19L73.912 108.73ZM71.873 107.336L71.5147 107.685L71.5194 107.689L71.873 107.336ZM70.5019 105.238L70.0398 105.429L70.0405 105.431L70.5019 105.238ZM71.873 97.8672L71.5171 97.516L71.5171 97.516L71.873 97.8672ZM73.912 96.4727L73.7145 96.0133L73.7128 96.014L73.912 96.4727ZM78.9042 96.4492L78.7129 96.9112L78.7185 96.9135L78.9042 96.4492ZM80.9433 97.7969L80.5874 98.1481L80.5897 98.1504L80.9433 97.7969ZM82.3144 99.8945L81.8517 100.084L81.8523 100.086L82.3144 99.8945ZM79.3378 101.219L78.8717 101.4L78.876 101.41L79.3378 101.219ZM78.6581 100.141L78.2954 100.485L78.2999 100.489L78.6581 100.141ZM77.6386 99.4492L77.4416 99.9089L77.4529 99.9135L77.6386 99.4492ZM75.1659 99.4492L75.3549 99.9122L75.3596 99.9102L75.1659 99.4492ZM74.1581 100.141L73.7954 99.7965L73.7952 99.7968L74.1581 100.141ZM73.4902 101.219L73.955 101.403L73.9562 101.4L73.4902 101.219ZM74.1581 105.039L73.7907 105.378L73.7954 105.383L74.1581 105.039ZM75.1659 105.766L74.9534 106.218L74.9646 106.223L75.1659 105.766ZM77.6386 105.777L77.445 105.316L77.4416 105.318L77.6386 105.777ZM79.3378 104.008L78.8747 103.819L78.8718 103.827L79.3378 104.008ZM82.3183 102.613C82.3183 103.49 82.1616 104.299 81.8523 105.047L82.7764 105.429C83.1391 104.552 83.3183 103.612 83.3183 102.613H82.3183ZM81.853 105.046C81.54 105.795 81.117 106.441 80.585 106.987L81.3015 107.685C81.9258 107.044 82.4169 106.291 82.7758 105.431L81.853 105.046ZM80.5874 106.985C80.0552 107.524 79.4285 107.954 78.7029 108.273L79.1056 109.188C79.9424 108.82 80.6751 108.32 81.2992 107.687L80.5874 106.985ZM78.705 108.272C77.9979 108.579 77.2341 108.734 76.4081 108.734V109.734C77.3634 109.734 78.2636 109.554 79.1034 109.189L78.705 108.272ZM76.4081 108.734C75.5906 108.734 74.826 108.579 74.1095 108.271L73.7145 109.19C74.5605 109.554 75.46 109.734 76.4081 109.734V108.734ZM74.1151 108.274C73.3965 107.954 72.7681 107.524 72.2265 106.982L71.5194 107.689C72.1497 108.32 72.8807 108.819 73.709 109.187L74.1151 108.274ZM72.2312 106.987C71.6993 106.441 71.2763 105.795 70.9633 105.046L70.0405 105.431C70.3994 106.291 70.8904 107.044 71.5147 107.685L72.2312 106.987ZM70.9639 105.047C70.6547 104.299 70.498 103.49 70.498 102.613H69.498C69.498 103.612 69.6772 104.552 70.0398 105.429L70.9639 105.047ZM70.498 102.613C70.498 101.72 70.6551 100.903 70.9639 100.156L70.0398 99.7738C69.6768 100.652 69.498 101.6 69.498 102.613H70.498ZM70.9639 100.156C71.2769 99.399 71.6992 98.7552 72.2289 98.2184L71.5171 97.516C70.8905 98.151 70.3987 98.9057 70.0398 99.7738L70.9639 100.156ZM72.2289 98.2184C72.7694 97.6706 73.3958 97.242 74.1112 96.9313L73.7128 96.014C72.8814 96.3752 72.1484 96.8762 71.5171 97.516L72.2289 98.2184ZM74.1095 96.932C74.826 96.6239 75.5906 96.4688 76.4081 96.4688V95.4688C75.46 95.4688 74.5605 95.6495 73.7145 96.0133L74.1095 96.932ZM76.4081 96.4688C77.2374 96.4688 78.0039 96.6176 78.7129 96.9112L79.0955 95.9873C78.2576 95.6403 77.3602 95.4688 76.4081 95.4688V96.4688ZM78.7185 96.9135C79.4373 97.201 80.0587 97.6122 80.5874 98.148L81.2992 97.4457C80.6716 96.8097 79.9336 96.3225 79.0899 95.985L78.7185 96.9135ZM80.5897 98.1504C81.1171 98.6778 81.5387 99.3199 81.8517 100.084L82.7771 99.705C82.4181 98.8286 81.9257 98.0722 81.2968 97.4433L80.5897 98.1504ZM81.8523 100.086C82.16 100.83 82.3183 101.67 82.3183 102.613H83.3183C83.3183 101.557 83.1406 100.584 82.7764 99.7035L81.8523 100.086ZM80.0956 102.613C80.0956 102.042 80.0002 101.51 79.7996 101.027L78.876 101.41C79.0192 101.755 79.0956 102.154 79.0956 102.613H80.0956ZM79.8038 101.038C79.6177 100.559 79.3564 100.141 79.0164 99.7918L78.2999 100.489C78.538 100.734 78.7298 101.035 78.8718 101.4L79.8038 101.038ZM79.0209 99.7965C78.6821 99.4394 78.2818 99.168 77.8243 98.985L77.4529 99.9135C77.7767 100.043 78.0561 100.233 78.2954 100.485L79.0209 99.7965ZM77.8356 98.9896C77.3874 98.7976 76.9099 98.7031 76.4081 98.7031V99.7031C76.7814 99.7031 77.1242 99.7727 77.4416 99.9088L77.8356 98.9896ZM76.4081 98.7031C75.9064 98.7031 75.4263 98.7976 74.9723 98.9882L75.3596 99.9102C75.6869 99.7727 76.0349 99.7031 76.4081 99.7031V98.7031ZM74.977 98.9863C74.5274 99.1698 74.1325 99.4412 73.7954 99.7965L74.5209 100.485C74.7619 100.231 75.0388 100.041 75.3549 99.9121L74.977 98.9863ZM73.7952 99.7968C73.4648 100.145 73.2092 100.562 73.0242 101.038L73.9562 101.4C74.0993 101.032 74.2889 100.73 74.5211 100.484L73.7952 99.7968ZM73.0253 101.035C72.8347 101.516 72.7441 102.044 72.7441 102.613H73.7441C73.7441 102.151 73.8175 101.75 73.955 101.403L73.0253 101.035ZM72.7441 102.613C72.7441 103.155 72.8361 103.667 73.0253 104.145L73.955 103.777C73.8161 103.426 73.7441 103.04 73.7441 102.613H72.7441ZM73.0253 104.145C73.2104 104.612 73.4647 105.025 73.7907 105.378L74.5255 104.7C74.289 104.444 74.0981 104.138 73.955 103.777L73.0253 104.145ZM73.7954 105.383C74.1277 105.733 74.5147 106.012 74.9535 106.218L75.3784 105.313C75.0516 105.16 74.7667 104.954 74.5209 104.695L73.7954 105.383ZM74.9646 106.223C75.4203 106.424 75.9031 106.523 76.4081 106.523V105.523C76.0382 105.523 75.6929 105.451 75.3673 105.308L74.9646 106.223ZM76.4081 106.523C76.9099 106.523 77.3874 106.429 77.8356 106.237L77.4416 105.318C77.1242 105.454 76.7814 105.523 76.4081 105.523V106.523ZM77.8322 106.238C78.2833 106.049 78.6794 105.781 79.0164 105.435L78.2999 104.737C78.0587 104.985 77.7752 105.178 77.445 105.316L77.8322 106.238ZM79.0164 105.435C79.3564 105.086 79.6177 104.668 79.8038 104.189L78.8718 103.827C78.7298 104.192 78.538 104.493 78.2999 104.737L79.0164 105.435ZM79.8009 104.196C79.9998 103.708 80.0956 103.178 80.0956 102.613H79.0956C79.0956 103.064 79.0196 103.464 78.8748 103.819L79.8009 104.196ZM86.827 109V109.5H87.327V109H86.827ZM83.6278 109H83.1278V109.5H83.6278V109ZM83.6278 96.4492V95.9492H83.1278V96.4492H83.6278ZM84.4012 96.4492L84.7793 96.122L84.6298 95.9492H84.4012V96.4492ZM85.4559 97.668L85.0778 97.9952L85.4131 98.3826L85.7923 98.0379L85.4559 97.668ZM87.202 96.5898L87.3819 97.0564L87.3849 97.0552L87.202 96.5898ZM91.4208 96.6484L91.2206 97.1067L91.2251 97.1086L91.4208 96.6484ZM93.202 97.8555L92.8458 98.2063L92.8485 98.209L93.202 97.8555ZM94.3973 99.6484L93.9364 99.8423L93.9391 99.8486L94.3973 99.6484ZM94.8427 109V109.5H95.3427V109H94.8427ZM91.6434 109H91.1434V109.5H91.6434V109ZM91.4559 100.902L90.9951 101.096L90.997 101.101L91.4559 100.902ZM87.0145 100.902L87.4735 101.101L87.4753 101.096L87.0145 100.902ZM86.827 108.5H83.6278V109.5H86.827V108.5ZM84.1278 109V96.4492H83.1278V109H84.1278ZM83.6278 96.9492H84.4012V95.9492H83.6278V96.9492ZM84.0232 96.7764L85.0778 97.9952L85.834 97.3408L84.7793 96.122L84.0232 96.7764ZM85.7923 98.0379C86.2623 97.6107 86.7913 97.2841 87.3819 97.0564L87.0222 96.1233C86.3159 96.3956 85.6808 96.7878 85.1196 97.298L85.7923 98.0379ZM87.3849 97.0552C87.9824 96.8205 88.6039 96.7031 89.2528 96.7031V95.7031C88.4798 95.7031 87.7342 95.8436 87.0192 96.1245L87.3849 97.0552ZM89.2528 96.7031C89.9518 96.7031 90.6061 96.8382 91.2206 97.1066L91.6209 96.1902C90.876 95.8649 90.085 95.7031 89.2528 95.7031V96.7031ZM91.2251 97.1086C91.8459 97.3726 92.3848 97.7382 92.8458 98.2063L93.5583 97.5046C93.0036 96.9415 92.355 96.5024 91.6165 96.1883L91.2251 97.1086ZM92.8485 98.209C93.3087 98.6693 93.6715 99.2121 93.9364 99.8422L94.8583 99.4546C94.5451 98.7098 94.111 98.0573 93.5556 97.5019L92.8485 98.209ZM93.9391 99.8486C94.2073 100.462 94.3427 101.121 94.3427 101.828H95.3427C95.3427 100.989 95.1812 100.194 94.8555 99.4483L93.9391 99.8486ZM94.3427 101.828V109H95.3427V101.828H94.3427ZM94.8427 108.5H91.6434V109.5H94.8427V108.5ZM92.1434 109V101.828H91.1434V109H92.1434ZM92.1434 101.828C92.1434 101.435 92.0681 101.058 91.9149 100.704L90.997 101.101C91.0938 101.325 91.1434 101.565 91.1434 101.828H92.1434ZM91.9168 100.708C91.7677 100.354 91.5602 100.042 91.2939 99.7754L90.5868 100.482C90.7579 100.654 90.8942 100.857 90.9951 101.096L91.9168 100.708ZM91.2939 99.7754C91.0297 99.5112 90.7229 99.3039 90.377 99.1544L89.9801 100.072C90.2124 100.173 90.4134 100.309 90.5868 100.482L91.2939 99.7754ZM90.377 99.1544C90.0227 99.0011 89.6463 98.9258 89.2528 98.9258V99.9258C89.5156 99.9258 89.7564 99.9754 89.9801 100.072L90.377 99.1544ZM89.2528 98.9258C88.8531 98.9258 88.4705 99.0005 88.1096 99.1525L88.4976 100.074C88.7304 99.9761 88.9806 99.9258 89.2528 99.9258V98.9258ZM88.1096 99.1525C87.7556 99.3015 87.443 99.509 87.1766 99.7754L87.8837 100.482C88.0548 100.311 88.2579 100.175 88.4976 100.074L88.1096 99.1525ZM87.1766 99.7754C86.9102 100.042 86.7028 100.354 86.5537 100.708L87.4753 101.096C87.5763 100.857 87.7126 100.654 87.8837 100.482L87.1766 99.7754ZM86.5556 100.704C86.4024 101.058 86.327 101.435 86.327 101.828H87.327C87.327 101.565 87.3767 101.325 87.4735 101.101L86.5556 100.704ZM86.327 101.828V109H87.327V101.828H86.327Z" fill="white"/>
<path d="M36.9585 24.5137V54.7832H52.0933C54.1675 54.7832 56.1186 54.3965 57.9468 53.623C59.7749 52.8145 61.3745 51.7246 62.7456 50.3535C64.1167 48.9824 65.189 47.3828 65.9624 45.5547C66.771 43.6914 67.1753 41.7227 67.1753 39.6484C67.1753 37.5742 66.771 35.623 65.9624 33.7949C65.189 31.9316 64.1167 30.3145 62.7456 28.9434C61.3745 27.5723 59.7749 26.5 57.9468 25.7266C56.1186 24.918 54.1675 24.5137 52.0933 24.5137H36.9585ZM36.9585 85H21.8237V9.37891H52.0933C54.8706 9.37891 57.5425 9.74805 60.1089 10.4863C62.6753 11.1895 65.0659 12.209 67.2808 13.5449C69.5308 14.8457 71.5698 16.4277 73.3979 18.291C75.2612 20.1191 76.8433 22.1582 78.144 24.4082C79.48 26.6582 80.4995 29.0664 81.2026 31.6328C81.9409 34.1992 82.3101 36.8711 82.3101 39.6484C82.3101 42.25 81.9761 44.7812 81.3081 47.2422C80.6753 49.7031 79.7436 52.041 78.5132 54.2559C77.3179 56.4707 75.8413 58.5098 74.0835 60.373C72.3257 62.2363 70.3569 63.8535 68.1772 65.2246L76.562 85H60.478L53.8862 69.7598L36.9585 69.8652V85Z" fill="#00DD31"/>
<g clip-path="url(#clip0_2_1099)">
<path d="M50.4706 48.5625C46.1512 48.5625 41.4912 45.8281 41.4912 39.8281C41.4912 33.8281 46.1512 31.0938 50.4706 31.0938C52.8702 31.0938 55.0841 31.8906 56.7252 33.3437C58.5055 34.9375 59.4499 37.1875 59.4499 39.8281C59.4499 42.4688 58.5055 44.7031 56.7252 46.2969C55.0841 47.75 52.8547 48.5625 50.4706 48.5625Z" fill="#FDE030"/>
<path d="M48.2039 38.8892C48.2039 38.8892 48.1961 38.8782 48.1791 38.8579C48.1636 38.8376 48.1419 38.8095 48.1141 38.7735C48.0908 38.7485 48.063 38.7188 48.0305 38.6845C47.998 38.647 47.9577 38.6079 47.9175 38.5673C47.8757 38.5282 47.8323 38.4876 47.7874 38.4548C47.7441 38.4188 47.6961 38.3923 47.6574 38.3704C47.6171 38.3454 47.58 38.3392 47.5567 38.3313C47.5443 38.3267 47.5335 38.3267 47.5242 38.3251C47.5196 38.3267 47.5149 38.3235 47.5103 38.3251L47.5041 38.3267H47.501H47.4994C47.518 38.3267 47.4576 38.3282 47.5412 38.3251L47.4561 38.3282C47.4344 38.3282 47.4484 38.3298 47.4499 38.3298C47.4546 38.3298 47.4576 38.3298 47.4607 38.3282C47.4731 38.3235 47.4607 38.3282 47.4576 38.3282C47.453 38.3282 47.4468 38.3298 47.4406 38.3329C47.4158 38.3407 47.3787 38.347 47.34 38.372C47.3013 38.3938 47.2533 38.4204 47.2099 38.4563C47.1666 38.4907 47.1217 38.5298 47.0799 38.5688C46.9994 38.6485 46.9282 38.7282 46.8786 38.786C46.8275 38.8454 46.7997 38.8798 46.7997 38.8798L46.7641 38.922C46.552 39.172 46.1618 39.2142 45.894 39.0173C45.7113 38.8829 45.6324 38.6735 45.6664 38.4735C45.6664 38.4735 45.6773 38.4095 45.7082 38.2985C45.7407 38.1876 45.7949 38.0298 45.9017 37.8438C46.0086 37.6595 46.1634 37.4423 46.425 37.2438C46.5535 37.147 46.7099 37.0501 46.8957 36.9845C46.9406 36.9673 46.9886 36.9517 47.0381 36.9392C47.0892 36.9267 47.1294 36.9126 47.1991 36.9032L47.2951 36.8892C47.3245 36.886 47.3679 36.8813 47.374 36.8813L47.4592 36.8751L47.5072 36.8735H47.5118H47.5211L47.5412 36.8751H47.5784L47.6574 36.8798C47.71 36.8845 47.7611 36.8938 47.8122 36.9017C47.9128 36.9204 48.0134 36.947 48.1048 36.9813C48.2906 37.047 48.4469 37.1423 48.5754 37.2407C48.8371 37.4392 48.9919 37.6563 49.0987 37.8407C49.1529 37.9329 49.1931 38.0204 49.2226 38.097C49.2551 38.1704 49.2783 38.2485 49.2969 38.3063C49.3139 38.3626 49.3139 38.3923 49.3216 38.4188C49.3263 38.4438 49.3278 38.4579 49.3278 38.4579C49.3851 38.7735 49.1544 39.072 48.8154 39.1235C48.5723 39.1626 48.3386 39.0642 48.2039 38.8892Z" fill="#422B0D"/>
<path d="M54.3192 38.8892C54.3192 38.8892 54.3114 38.8782 54.2944 38.8579C54.2789 38.8376 54.2573 38.8095 54.2294 38.7735C54.2062 38.7485 54.1783 38.7188 54.1458 38.6845C54.1133 38.647 54.073 38.6079 54.0328 38.5673C53.991 38.5282 53.9476 38.4876 53.9027 38.4548C53.8594 38.4188 53.8114 38.3923 53.7727 38.3704C53.7324 38.3454 53.6953 38.3392 53.672 38.3313C53.6597 38.3267 53.6488 38.3267 53.6395 38.3251C53.6349 38.3267 53.6302 38.3235 53.6256 38.3251L53.6194 38.3267H53.6163H53.6148H53.6132C53.6318 38.3267 53.5714 38.3282 53.655 38.3251L53.5699 38.3282C53.5482 38.3282 53.5621 38.3298 53.5637 38.3298C53.5683 38.3298 53.5714 38.3298 53.5745 38.3282C53.5869 38.3235 53.5745 38.3282 53.5714 38.3282C53.5668 38.3282 53.5606 38.3298 53.5544 38.3329C53.5296 38.3407 53.4925 38.347 53.4538 38.372C53.4151 38.3938 53.3671 38.4204 53.3237 38.4563C53.2804 38.4907 53.2355 38.5298 53.1937 38.5688C53.1132 38.6485 53.0419 38.7282 52.9924 38.786C52.9413 38.8454 52.9134 38.8798 52.9134 38.8798L52.8778 38.922C52.6657 39.172 52.2756 39.2142 52.0078 39.0173C51.8251 38.8829 51.7461 38.6735 51.7802 38.4735C51.7802 38.4735 51.791 38.4095 51.822 38.2985C51.8545 38.1876 51.9087 38.0298 52.0155 37.8438C52.1223 37.6595 52.2772 37.4423 52.5388 37.2438C52.6673 37.147 52.8237 37.0501 53.0094 36.9845C53.0543 36.9673 53.1023 36.9517 53.1519 36.9392C53.203 36.9267 53.2432 36.9126 53.3129 36.9032L53.4089 36.8892C53.4383 36.886 53.4816 36.8813 53.4878 36.8813L53.573 36.8751L53.621 36.8735H53.6256H53.6349L53.655 36.8751H53.6922L53.7711 36.8798C53.8238 36.8845 53.8749 36.8938 53.9259 36.9017C54.0266 36.9204 54.1272 36.947 54.2186 36.9813C54.4043 37.047 54.5607 37.1423 54.6892 37.2407C54.9508 37.4392 55.1057 37.6563 55.2125 37.8407C55.2667 37.9329 55.3069 38.0204 55.3363 38.097C55.3688 38.1704 55.3921 38.2485 55.4106 38.3063C55.4277 38.3626 55.4277 38.3923 55.4354 38.4188C55.4401 38.4438 55.4416 38.4579 55.4416 38.4579C55.4989 38.7735 55.2682 39.072 54.9292 39.1235C54.6861 39.1626 54.4523 39.0642 54.3192 38.8892Z" fill="#422B0D"/>
<path d="M50.5356 44.686C48.5896 44.686 47.0507 43.7563 46.2023 42.761C46.1171 42.661 46.097 42.5267 46.1512 42.4095C46.2054 42.2892 46.323 42.211 46.45 42.211C46.5073 42.211 46.5661 42.2267 46.6172 42.2563C47.4919 42.7657 48.9611 43.3954 50.531 43.3954H50.5557C52.1271 43.3954 53.5948 42.7642 54.4695 42.2563C54.5221 42.2267 54.5794 42.2095 54.6367 42.211C54.7636 42.211 54.8813 42.2892 54.9355 42.4095C54.9881 42.5267 54.9695 42.6626 54.8844 42.761C54.036 43.7548 52.4956 44.686 50.5511 44.686" fill="#422B0D"/>
</g>
<defs>
<clipPath id="clip0_2_1099">
<rect width="19.8165" height="20" fill="white" transform="translate(40.624 30)"/>
</clipPath>
</defs>
</svg>
