<svg width="553" height="105" viewBox="0 0 553 105" fill="none" xmlns="http://www.w3.org/2000/svg">
<g filter="url(#filter0_d_12_395)">
<path d="M4.125 6H38.0625C45.0208 6 51 7.04167 56 9.125C61.0417 11.2083 64.9167 14.2917 67.625 18.375C70.3333 22.4583 71.6875 27.4792 71.6875 33.4375C71.6875 38.3125 70.8542 42.5 69.1875 46C67.5625 49.4583 65.25 52.3542 62.25 54.6875C59.2917 56.9792 55.8125 58.8125 51.8125 60.1875L45.875 63.3125H16.375L16.25 48.6875H38.1875C41.4792 48.6875 44.2083 48.1042 46.375 46.9375C48.5417 45.7708 50.1667 44.1458 51.25 42.0625C52.375 39.9792 52.9375 37.5625 52.9375 34.8125C52.9375 31.8958 52.3958 29.375 51.3125 27.25C50.2292 25.125 48.5833 23.5 46.375 22.375C44.1667 21.25 41.3958 20.6875 38.0625 20.6875H22.875V97H4.125V6ZM55 97L34.25 56.4375L54.0625 56.3125L75.0625 96.125V97H55ZM147.287 82.375V97H98.85V82.375H147.287ZM104.975 6V97H86.225V6H104.975ZM140.975 43.0625V57.3125H98.85V43.0625H140.975ZM147.225 6V20.6875H98.85V6H147.225ZM175.2 43.375V97H157.137V29.375H174.075L175.2 43.375ZM172.7 60.8125H167.7C167.7 56.1042 168.262 51.7708 169.387 47.8125C170.554 43.8125 172.242 40.3542 174.45 37.4375C176.7 34.4792 179.471 32.1875 182.762 30.5625C186.054 28.9375 189.867 28.125 194.2 28.125C197.2 28.125 199.95 28.5833 202.45 29.5C204.95 30.375 207.096 31.7708 208.887 33.6875C210.721 35.5625 212.137 38.0208 213.137 41.0625C214.137 44.0625 214.637 47.6667 214.637 51.875V97H196.637V53.875C196.637 50.7917 196.221 48.4167 195.387 46.75C194.554 45.0833 193.367 43.9167 191.825 43.25C190.325 42.5833 188.512 42.25 186.387 42.25C184.054 42.25 182.012 42.7292 180.262 43.6875C178.554 44.6458 177.137 45.9792 176.012 47.6875C174.887 49.3542 174.054 51.3125 173.512 53.5625C172.971 55.8125 172.7 58.2292 172.7 60.8125ZM212.95 58.75L206.512 59.5625C206.512 55.1458 207.054 51.0417 208.137 47.25C209.262 43.4583 210.908 40.125 213.075 37.25C215.283 34.375 218.012 32.1458 221.262 30.5625C224.512 28.9375 228.262 28.125 232.512 28.125C235.762 28.125 238.721 28.6042 241.387 29.5625C244.054 30.4792 246.325 31.9583 248.2 34C250.117 36 251.575 38.625 252.575 41.875C253.617 45.125 254.137 49.1042 254.137 53.8125V97H236.075V53.8125C236.075 50.6875 235.658 48.3125 234.825 46.6875C234.033 45.0208 232.867 43.875 231.325 43.25C229.825 42.5833 228.033 42.25 225.95 42.25C223.783 42.25 221.887 42.6875 220.262 43.5625C218.637 44.3958 217.283 45.5625 216.2 47.0625C215.117 48.5625 214.304 50.3125 213.762 52.3125C213.221 54.2708 212.95 56.4167 212.95 58.75ZM265.3 63.875V62.5625C265.3 57.6042 266.008 53.0417 267.425 48.875C268.842 44.6667 270.904 41.0208 273.612 37.9375C276.321 34.8542 279.654 32.4583 283.612 30.75C287.571 29 292.112 28.125 297.237 28.125C302.362 28.125 306.925 29 310.925 30.75C314.925 32.4583 318.279 34.8542 320.987 37.9375C323.737 41.0208 325.821 44.6667 327.237 48.875C328.654 53.0417 329.362 57.6042 329.362 62.5625V63.875C329.362 68.7917 328.654 73.3542 327.237 77.5625C325.821 81.7292 323.737 85.375 320.987 88.5C318.279 91.5833 314.946 93.9792 310.987 95.6875C307.029 97.3958 302.487 98.25 297.362 98.25C292.237 98.25 287.675 97.3958 283.675 95.6875C279.717 93.9792 276.362 91.5833 273.612 88.5C270.904 85.375 268.842 81.7292 267.425 77.5625C266.008 73.3542 265.3 68.7917 265.3 63.875ZM283.3 62.5625V63.875C283.3 66.7083 283.55 69.3542 284.05 71.8125C284.55 74.2708 285.342 76.4375 286.425 78.3125C287.55 80.1458 289.008 81.5833 290.8 82.625C292.592 83.6667 294.779 84.1875 297.362 84.1875C299.862 84.1875 302.008 83.6667 303.8 82.625C305.592 81.5833 307.029 80.1458 308.112 78.3125C309.196 76.4375 309.987 74.2708 310.487 71.8125C311.029 69.3542 311.3 66.7083 311.3 63.875V62.5625C311.3 59.8125 311.029 57.2292 310.487 54.8125C309.987 52.3542 309.175 50.1875 308.05 48.3125C306.967 46.3958 305.529 44.8958 303.737 43.8125C301.946 42.7292 299.779 42.1875 297.237 42.1875C294.696 42.1875 292.529 42.7292 290.737 43.8125C288.987 44.8958 287.55 46.3958 286.425 48.3125C285.342 50.1875 284.55 52.3542 284.05 54.8125C283.55 57.2292 283.3 59.8125 283.3 62.5625ZM373.65 29.375V42.125H334.275V29.375H373.65ZM344.025 12.6875H362.025V76.625C362.025 78.5833 362.275 80.0833 362.775 81.125C363.317 82.1667 364.108 82.8958 365.15 83.3125C366.192 83.6875 367.504 83.875 369.087 83.875C370.212 83.875 371.212 83.8333 372.087 83.75C373.004 83.625 373.775 83.5 374.4 83.375L374.462 96.625C372.921 97.125 371.254 97.5208 369.462 97.8125C367.671 98.1042 365.692 98.25 363.525 98.25C359.567 98.25 356.108 97.6042 353.15 96.3125C350.233 94.9792 347.983 92.8542 346.4 89.9375C344.817 87.0208 344.025 83.1875 344.025 78.4375V12.6875ZM403 29.375V97H384.938V29.375H403ZM383.812 11.75C383.812 9.125 384.729 6.95833 386.562 5.25C388.396 3.54167 390.854 2.6875 393.938 2.6875C396.979 2.6875 399.417 3.54167 401.25 5.25C403.125 6.95833 404.062 9.125 404.062 11.75C404.062 14.375 403.125 16.5417 401.25 18.25C399.417 19.9583 396.979 20.8125 393.938 20.8125C390.854 20.8125 388.396 19.9583 386.562 18.25C384.729 16.5417 383.812 14.375 383.812 11.75ZM415.1 63.875V62.5625C415.1 57.6042 415.808 53.0417 417.225 48.875C418.642 44.6667 420.704 41.0208 423.413 37.9375C426.121 34.8542 429.454 32.4583 433.413 30.75C437.371 29 441.913 28.125 447.038 28.125C452.163 28.125 456.725 29 460.725 30.75C464.725 32.4583 468.079 34.8542 470.788 37.9375C473.538 41.0208 475.621 44.6667 477.038 48.875C478.454 53.0417 479.163 57.6042 479.163 62.5625V63.875C479.163 68.7917 478.454 73.3542 477.038 77.5625C475.621 81.7292 473.538 85.375 470.788 88.5C468.079 91.5833 464.746 93.9792 460.788 95.6875C456.829 97.3958 452.288 98.25 447.163 98.25C442.038 98.25 437.475 97.3958 433.475 95.6875C429.517 93.9792 426.163 91.5833 423.413 88.5C420.704 85.375 418.642 81.7292 417.225 77.5625C415.808 73.3542 415.1 68.7917 415.1 63.875ZM433.1 62.5625V63.875C433.1 66.7083 433.35 69.3542 433.85 71.8125C434.35 74.2708 435.142 76.4375 436.225 78.3125C437.35 80.1458 438.808 81.5833 440.6 82.625C442.392 83.6667 444.579 84.1875 447.163 84.1875C449.663 84.1875 451.808 83.6667 453.6 82.625C455.392 81.5833 456.829 80.1458 457.913 78.3125C458.996 76.4375 459.788 74.2708 460.288 71.8125C460.829 69.3542 461.1 66.7083 461.1 63.875V62.5625C461.1 59.8125 460.829 57.2292 460.288 54.8125C459.788 52.3542 458.975 50.1875 457.85 48.3125C456.767 46.3958 455.329 44.8958 453.538 43.8125C451.746 42.7292 449.579 42.1875 447.038 42.1875C444.496 42.1875 442.329 42.7292 440.538 43.8125C438.788 44.8958 437.35 46.3958 436.225 48.3125C435.142 50.1875 434.35 52.3542 433.85 54.8125C433.35 57.2292 433.1 59.8125 433.1 62.5625ZM507.95 43.8125V97H489.95V29.375H506.825L507.95 43.8125ZM505.325 60.8125H500.45C500.45 55.8125 501.096 51.3125 502.388 47.3125C503.679 43.2708 505.492 39.8333 507.825 37C510.158 34.125 512.929 31.9375 516.138 30.4375C519.388 28.8958 523.013 28.125 527.013 28.125C530.179 28.125 533.075 28.5833 535.7 29.5C538.325 30.4167 540.575 31.875 542.45 33.875C544.367 35.875 545.825 38.5208 546.825 41.8125C547.867 45.1042 548.388 49.125 548.388 53.875V97H530.263V53.8125C530.263 50.8125 529.846 48.4792 529.013 46.8125C528.179 45.1458 526.95 43.9792 525.325 43.3125C523.742 42.6042 521.783 42.25 519.45 42.25C517.033 42.25 514.929 42.7292 513.138 43.6875C511.388 44.6458 509.929 45.9792 508.763 47.6875C507.638 49.3542 506.783 51.3125 506.2 53.5625C505.617 55.8125 505.325 58.2292 505.325 60.8125Z" fill="url(#paint0_linear_12_395)"/>
</g>
<defs>
<filter id="filter0_d_12_395" x="0.125" y="0.6875" width="552.262" height="103.562" filterUnits="userSpaceOnUse" color-interpolation-filters="sRGB">
<feFlood flood-opacity="0" result="BackgroundImageFix"/>
<feColorMatrix in="SourceAlpha" type="matrix" values="0 0 0 0 0 0 0 0 0 0 0 0 0 0 0 0 0 0 127 0" result="hardAlpha"/>
<feOffset dy="2"/>
<feGaussianBlur stdDeviation="2"/>
<feComposite in2="hardAlpha" operator="out"/>
<feColorMatrix type="matrix" values="0 0 0 0 0 0 0 0 0 0 0 0 0 0 0 0 0 0 0.25 0"/>
<feBlend mode="normal" in2="BackgroundImageFix" result="effect1_dropShadow_12_395"/>
<feBlend mode="normal" in="SourceGraphic" in2="effect1_dropShadow_12_395" result="shape"/>
</filter>
<linearGradient id="paint0_linear_12_395" x1="-4" y1="53.5" x2="958" y2="53.5001" gradientUnits="userSpaceOnUse">
<stop offset="0.0260417" stop-color="#84FAB0"/>
<stop offset="1" stop-color="#8FD3F4"/>
</linearGradient>
</defs>
</svg>
