<svg width="1027" height="723" viewBox="0 0 1027 723" fill="none" xmlns="http://www.w3.org/2000/svg">
<g clip-path="url(#clip0_4_1278)">
<path d="M549.713 636.036L536.032 629.96L536.872 557.618H403.567L381.911 629.665L367.888 636.12C367.217 636.429 366.64 636.937 366.25 637.563C365.86 638.188 365.68 638.894 365.74 639.566C365.8 640.239 366.095 640.838 366.578 641.266C367.062 641.695 367.705 641.928 368.403 641.928H547.627C548.342 641.928 549.073 641.683 549.694 641.235C550.315 640.787 550.789 640.163 551.034 639.469C551.28 638.775 551.283 638.054 551.042 637.429C550.801 636.803 550.331 636.311 549.713 636.036V636.036Z" fill="#E6E6E6"/>
<path d="M796.922 567.243H142.093C138.659 567.235 135.569 565.88 133.503 563.475C131.438 561.07 130.563 557.811 131.073 554.413L144.77 463.095H825.487L811.791 554.413C811.281 557.811 809.43 561.07 806.642 563.475C803.855 565.88 800.359 567.235 796.922 567.243V567.243Z" fill="#CCCCCC"/>
<path d="M819.699 506.254H137.699L196.303 115.523C196.923 111.423 199.162 107.492 202.528 104.592C205.895 101.693 210.115 100.062 214.262 100.057H864.983C869.128 100.062 872.859 101.693 875.356 104.592C877.853 107.492 878.913 111.423 878.303 115.523L819.699 506.254Z" fill="#3F3D56"/>
<path d="M783.219 477.895H182.685C179.489 477.891 176.613 476.634 174.688 474.398C172.763 472.163 171.946 469.132 172.417 465.971L221.257 140.34C221.735 137.178 223.461 134.147 226.056 131.912C228.652 129.677 231.905 128.419 235.102 128.416H835.636C838.832 128.419 841.708 129.677 843.633 131.912C845.558 134.147 846.375 137.178 845.905 140.34L797.064 465.971C796.587 469.132 794.861 472.163 792.265 474.398C789.669 476.634 786.416 477.891 783.219 477.895V477.895Z" fill="white"/>
<path d="M626.656 642.683H289.208C288.861 642.69 288.539 642.584 288.291 642.381C288.043 642.178 287.883 641.89 287.837 641.561C287.811 641.338 287.839 641.104 287.919 640.877C288 640.65 288.13 640.437 288.3 640.254C288.47 640.07 288.676 639.922 288.901 639.82C289.126 639.717 289.365 639.664 289.599 639.664H626.984C627.35 639.651 627.692 639.761 627.953 639.975C628.215 640.19 628.38 640.496 628.423 640.844C628.439 641.065 628.404 641.294 628.319 641.514C628.234 641.735 628.102 641.941 627.932 642.117C627.763 642.293 627.56 642.436 627.339 642.534C627.118 642.632 626.885 642.682 626.656 642.683Z" fill="#CCCCCC"/>
</g>
<path d="M802.513 711.788C768.51 711.788 731.825 690.459 731.825 643.659C731.825 596.859 768.51 575.531 802.513 575.531C821.403 575.531 838.831 581.747 851.75 593.081C865.766 605.512 873.2 623.063 873.2 643.659C873.2 664.256 865.766 681.684 851.75 694.116C838.831 705.45 821.281 711.788 802.513 711.788Z" fill="url(#paint0_radial_4_1278)"/>
<path d="M860.879 603.16C867.375 613.642 870.763 626.122 870.763 640.003C870.763 660.6 863.328 678.028 849.313 690.459C836.394 701.794 818.844 708.131 800.075 708.131C778.065 708.131 754.982 699.174 741.356 680.173C754.47 701.696 779.137 711.788 802.513 711.788C821.282 711.788 838.832 705.45 851.75 694.116C865.766 681.684 873.2 664.256 873.2 643.659C873.2 628.133 868.971 614.336 860.879 603.16Z" fill="#EB8F00"/>
<path d="M789.594 682.781H816.406" stroke="#35220B" stroke-width="8" stroke-linecap="round" stroke-linejoin="round"/>
<path d="M785.45 645L785.206 645.244L784.597 645.853C784.353 646.097 784.109 646.219 783.744 646.584C783.354 646.901 782.952 647.182 782.525 647.438C782.038 647.681 781.55 648.047 781.063 648.291C780.575 648.534 779.966 648.778 779.356 649.022C778.759 649.241 778.15 649.4 777.528 649.509C776.882 649.619 776.236 649.656 775.578 649.631H774.481C774.238 649.631 773.872 649.509 773.628 649.509C773.007 649.4 772.397 649.241 771.8 649.022C771.203 648.851 770.63 648.608 770.094 648.291C769.582 648.047 769.094 647.767 768.631 647.438C767.778 646.828 767.047 646.219 766.559 645.853L765.828 645.122L765.584 644.878C764.012 643.464 761.66 643.367 759.978 644.634C758.796 645.561 758.394 647.169 759.003 648.534L759.125 648.9C759.259 649.241 759.43 649.558 759.613 649.875C760.356 651.13 761.258 652.276 762.294 653.288C763.013 653.994 763.793 654.653 764.609 655.238C765.572 655.908 766.584 656.481 767.656 656.944C768.826 657.48 770.057 657.882 771.313 658.163C771.922 658.284 772.653 658.406 773.384 658.528C773.75 658.528 774.238 658.65 774.359 658.65H775.334C776.687 658.65 778.028 658.528 779.356 658.284C780.624 658.029 781.843 657.614 783.013 657.066C784.085 656.603 785.097 656.03 786.059 655.359C786.937 654.835 787.717 654.177 788.375 653.409C788.972 652.861 789.509 652.252 789.959 651.581C790.203 651.338 790.325 650.972 790.569 650.728C790.813 650.484 790.934 650.241 791.056 649.997C791.264 649.704 791.434 649.375 791.544 649.022L791.666 648.778C792.421 647.072 791.641 645.061 789.935 644.305C789.789 644.244 789.63 644.184 789.472 644.147C788.083 643.574 786.486 643.915 785.45 645Z" fill="#422B0D"/>
<path d="M840.184 645.451L839.94 645.695C839.745 645.914 839.538 646.121 839.319 646.304L838.478 646.999C838.124 647.267 837.722 647.559 837.259 647.852C836.796 648.144 836.32 648.425 835.796 648.693C835.26 648.961 834.7 649.192 834.127 649.387C833.53 649.57 832.92 649.717 832.299 649.838C831.665 649.936 831.031 649.985 830.385 649.985H829.812C829.495 649.985 829.435 649.985 829.313 649.985L828.46 649.875C827.838 649.753 827.229 649.607 826.631 649.424C826.046 649.205 825.486 648.949 824.937 648.656C824.413 648.388 823.926 648.096 823.475 647.815C822.756 647.34 822.085 646.804 821.452 646.219L820.684 645.512L820.379 645.207C818.819 643.781 816.467 643.696 814.81 645C813.603 645.926 813.201 647.584 813.859 648.961L814.042 649.327C814.2 649.68 814.383 650.021 814.578 650.35C815.833 652.447 817.54 654.238 819.563 655.615C820.525 656.286 821.549 656.858 822.622 657.322C823.816 657.846 825.059 658.26 826.339 658.54C827.009 658.662 827.631 658.784 828.447 658.857C828.825 658.857 829.264 658.93 829.459 658.93H830.41C831.775 658.906 833.127 658.772 834.468 658.504C835.748 658.223 836.991 657.809 838.185 657.285C839.258 656.822 840.281 656.249 841.244 655.579C842.755 654.555 844.096 653.288 845.205 651.837L845.79 651.021L846.278 650.253C846.46 649.96 846.619 649.643 846.753 649.314L846.887 649.01C847.618 647.267 846.79 645.256 845.047 644.525C844.925 644.476 844.803 644.427 844.681 644.403C843.109 643.854 841.354 644.269 840.184 645.451Z" fill="#422B0D"/>
<path d="M753.519 624.038C750.838 624.525 750.716 628.425 753.641 628.547C760.1 628.632 766.34 626.231 771.069 621.844C772.873 620.284 774.396 618.431 775.578 616.359C776.285 615.348 776.041 613.958 775.03 613.252C774.018 612.545 772.629 612.788 771.922 613.8L771.8 613.922C767.023 619.26 760.576 622.831 753.519 624.038Z" fill="#422B0D"/>
<path d="M834.078 613.8C833.372 612.788 831.982 612.545 830.971 613.252C829.959 613.958 829.715 615.348 830.422 616.359C831.604 618.431 833.128 620.284 834.932 621.844C839.685 626.195 845.913 628.596 852.36 628.547C855.407 628.425 855.163 624.525 852.482 624.038C845.34 622.868 838.844 619.248 834.078 613.8Z" fill="#422B0D"/>
<path d="M476.75 493.25C389.563 493.25 295.5 438.563 295.5 318.563C295.5 198.562 389.563 143.875 476.75 143.875C525.188 143.875 569.875 159.812 603 188.875C638.938 220.75 658 265.75 658 318.563C658 371.375 638.938 416.063 603 447.938C569.875 477 524.875 493.25 476.75 493.25Z" fill="url(#paint1_radial_4_1278)"/>
<path d="M626.406 214.719C643.062 241.594 651.75 273.594 651.75 309.188C651.75 362 632.688 406.688 596.75 438.563C563.625 467.625 518.625 483.875 470.5 483.875C414.063 483.875 354.75 460.906 319.938 412.188C353.563 467.375 416.781 493.25 476.75 493.25C524.875 493.25 569.875 477 603 447.938C638.938 416.063 658 371.375 658 318.563C658 278.75 647.156 243.375 626.406 214.719Z" fill="#EB8F00"/>
<path opacity="0.8" d="M363.156 401.156C393.359 401.156 417.844 376.672 417.844 346.469C417.844 316.266 393.359 291.781 363.156 291.781C332.953 291.781 308.469 316.266 308.469 346.469C308.469 376.672 332.953 401.156 363.156 401.156Z" fill="url(#paint2_radial_4_1278)"/>
<path opacity="0.8" d="M592.844 401.156C623.047 401.156 647.531 376.672 647.531 346.469C647.531 316.266 623.047 291.781 592.844 291.781C562.641 291.781 538.156 316.266 538.156 346.469C538.156 376.672 562.641 401.156 592.844 401.156Z" fill="url(#paint3_radial_4_1278)"/>
<path d="M431 299.781C431 299.781 430.844 299.562 430.5 299.156C430.187 298.75 429.75 298.188 429.187 297.469C428.719 296.969 428.156 296.375 427.5 295.688C426.844 294.938 426.031 294.156 425.219 293.344C424.375 292.563 423.5 291.75 422.594 291.094C421.719 290.375 420.75 289.844 419.969 289.406C419.156 288.906 418.406 288.781 417.937 288.625C417.687 288.531 417.469 288.531 417.281 288.5C417.187 288.531 417.094 288.469 417 288.5L416.875 288.531H416.812H416.781C417.156 288.531 415.937 288.562 417.625 288.5L415.906 288.562C415.469 288.562 415.75 288.594 415.781 288.594C415.875 288.594 415.937 288.594 416 288.562C416.25 288.469 416 288.562 415.937 288.562C415.844 288.562 415.719 288.594 415.594 288.656C415.094 288.813 414.344 288.938 413.562 289.438C412.781 289.875 411.812 290.406 410.937 291.125C410.062 291.812 409.156 292.594 408.312 293.375C406.687 294.969 405.25 296.562 404.25 297.719C403.219 298.906 402.656 299.594 402.656 299.594L401.937 300.437C397.656 305.437 389.781 306.281 384.375 302.344C380.687 299.656 379.094 295.469 379.781 291.469C379.781 291.469 380 290.187 380.625 287.969C381.281 285.75 382.375 282.594 384.531 278.875C386.687 275.187 389.812 270.844 395.094 266.875C397.687 264.937 400.844 263 404.594 261.687C405.5 261.344 406.469 261.031 407.469 260.781C408.5 260.531 409.312 260.25 410.719 260.062L412.656 259.781C413.25 259.719 414.125 259.625 414.25 259.625L415.969 259.5L416.937 259.469H417.031H417.219L417.625 259.5H418.375L419.969 259.594C421.031 259.687 422.062 259.875 423.094 260.031C425.125 260.406 427.156 260.937 429 261.625C432.75 262.937 435.906 264.844 438.5 266.812C443.781 270.781 446.906 275.125 449.062 278.812C450.156 280.656 450.969 282.406 451.562 283.937C452.219 285.406 452.687 286.969 453.062 288.125C453.406 289.25 453.406 289.844 453.562 290.375C453.656 290.875 453.687 291.156 453.687 291.156C454.844 297.469 450.187 303.437 443.344 304.469C438.437 305.25 433.719 303.281 431 299.781Z" fill="#422B0D"/>
<path d="M554.437 299.781C554.437 299.781 554.281 299.562 553.937 299.156C553.625 298.75 553.187 298.188 552.625 297.469C552.156 296.969 551.594 296.375 550.937 295.688C550.281 294.938 549.469 294.156 548.656 293.344C547.812 292.563 546.937 291.75 546.031 291.094C545.156 290.375 544.187 289.844 543.406 289.406C542.594 288.906 541.844 288.781 541.375 288.625C541.125 288.531 540.906 288.531 540.719 288.5C540.625 288.531 540.531 288.469 540.437 288.5L540.312 288.531H540.25H540.219H540.187C540.562 288.531 539.344 288.562 541.031 288.5L539.312 288.562C538.875 288.562 539.156 288.594 539.187 288.594C539.281 288.594 539.344 288.594 539.406 288.562C539.656 288.469 539.406 288.562 539.344 288.562C539.25 288.562 539.125 288.594 539 288.656C538.5 288.813 537.75 288.938 536.969 289.438C536.187 289.875 535.219 290.406 534.344 291.125C533.469 291.812 532.562 292.594 531.719 293.375C530.094 294.969 528.656 296.562 527.656 297.719C526.625 298.906 526.062 299.594 526.062 299.594L525.344 300.437C521.062 305.437 513.187 306.281 507.781 302.344C504.094 299.656 502.5 295.469 503.187 291.469C503.187 291.469 503.406 290.187 504.031 287.969C504.687 285.75 505.781 282.594 507.937 278.875C510.094 275.187 513.219 270.844 518.5 266.875C521.094 264.937 524.25 263 528 261.687C528.906 261.344 529.875 261.031 530.875 260.781C531.906 260.531 532.719 260.25 534.125 260.062L536.062 259.781C536.656 259.719 537.531 259.625 537.656 259.625L539.375 259.5L540.344 259.469H540.437H540.625L541.031 259.5H541.781L543.375 259.594C544.437 259.687 545.469 259.875 546.5 260.031C548.531 260.406 550.562 260.937 552.406 261.625C556.156 262.937 559.312 264.844 561.906 266.812C567.187 270.781 570.312 275.125 572.469 278.812C573.562 280.656 574.375 282.406 574.969 283.937C575.625 285.406 576.094 286.969 576.469 288.125C576.812 289.25 576.812 289.844 576.969 290.375C577.062 290.875 577.094 291.156 577.094 291.156C578.25 297.469 573.594 303.437 566.75 304.469C561.844 305.25 557.125 303.281 554.437 299.781Z" fill="#422B0D"/>
<path d="M478.063 415.719C438.781 415.719 407.719 397.125 390.594 377.219C388.875 375.219 388.469 372.531 389.563 370.187C390.656 367.781 393.031 366.219 395.594 366.219C396.75 366.219 397.938 366.531 398.969 367.125C416.625 377.313 446.281 389.906 477.969 389.906H478.469C510.188 389.906 539.813 377.281 557.469 367.125C558.531 366.531 559.688 366.188 560.844 366.219C563.406 366.219 565.781 367.781 566.875 370.187C567.938 372.531 567.563 375.25 565.844 377.219C548.719 397.094 517.625 415.719 478.375 415.719" fill="#422B0D"/>
<g filter="url(#filter0_d_4_1278)">
<path d="M99.375 607.625C55.7813 607.625 8.75 580.281 8.75 520.281C8.75 460.281 55.7813 432.938 99.375 432.938C123.594 432.938 145.938 440.906 162.5 455.437C180.469 471.375 190 493.875 190 520.281C190 546.688 180.469 569.031 162.5 584.969C145.938 599.5 123.438 607.625 99.375 607.625Z" fill="url(#paint4_radial_4_1278)"/>
<path d="M131.156 583.156C130.625 582.953 130.141 582.625 129.766 582.188C114.563 566.391 89.4219 565.906 73.625 581.109C73.2656 581.469 72.8906 581.828 72.5469 582.188C72.1719 582.625 71.6875 582.953 71.1563 583.156C69.9844 583.594 68.6563 583.344 67.7188 582.516C66.7969 581.703 66.4844 580.406 66.9531 579.266C71.6094 567.313 85.4531 557.938 101.156 557.938C116.859 557.938 130.703 567.313 135.359 579.25C135.828 580.391 135.516 581.688 134.594 582.5C133.656 583.328 132.328 583.578 131.156 583.156Z" fill="#422B0D"/>
<path d="M90.8436 529.531C87.3436 525.125 72.9217 516.656 67.7186 514.188C65.7811 513.297 63.7654 512.578 61.7029 512.047C61.3279 511.938 60.9217 511.891 60.5311 511.891C58.4529 511.937 56.6717 513.422 56.2498 515.469C55.7654 517.594 56.8592 519.781 58.8592 520.656C61.3123 521.859 65.5935 524.141 70.031 526.656C66.3279 528.859 64.0623 532.859 64.0623 537.172L64.0623 539.453C64.0623 545.922 69.3123 551.172 75.7811 551.172C82.2498 551.172 87.4998 545.922 87.4998 539.453L87.4998 537.172C87.4998 537.078 87.4998 537 87.4998 536.906C89.1717 536.797 90.6717 535.797 91.4061 534.297C92.1717 532.734 91.9529 530.875 90.8436 529.531Z" fill="#422B0D"/>
<path d="M146.125 515.469C145.687 513.406 143.875 511.938 141.765 511.922C141.375 511.922 140.968 511.969 140.593 512.078C138.531 512.594 136.515 513.313 134.578 514.188C129.375 516.625 114.953 525.125 111.453 529.5C110.343 530.859 110.156 532.734 110.937 534.297C111.687 535.813 113.171 536.797 114.859 536.906C114.859 537 114.859 537.078 114.859 537.172L114.859 539.453C114.859 545.922 120.109 551.172 126.578 551.172C133.046 551.172 138.296 545.922 138.296 539.453L138.296 537.172C138.296 532.875 136.031 528.891 132.343 526.688C136.781 524.172 141.062 521.891 143.515 520.688C145.531 519.813 146.64 517.609 146.125 515.469Z" fill="#422B0D"/>
<path d="M75.1874 528.953C72.9687 527.891 70.2968 528.828 69.2187 531.047C68.3906 532.781 68.7656 534.859 70.1562 536.203C72.3749 537.266 75.0468 536.328 76.1249 534.109C76.9531 532.375 76.5781 530.297 75.1874 528.953Z" fill="#896024"/>
<path d="M125.984 528.953C123.766 527.891 121.094 528.828 120.016 531.047C119.187 532.781 119.562 534.859 120.953 536.203C123.172 537.266 125.844 536.328 126.922 534.109C127.75 532.375 127.375 530.297 125.984 528.953Z" fill="#896024"/>
</g>
<path d="M199.513 144.788C165.51 144.788 128.825 123.459 128.825 76.6594C128.825 29.8594 165.51 8.53125 199.513 8.53125C218.403 8.53125 235.831 14.7469 248.75 26.0812C262.766 38.5125 270.2 56.0625 270.2 76.6594C270.2 97.2563 262.766 114.684 248.75 127.116C235.831 138.45 218.281 144.788 199.513 144.788Z" fill="url(#paint5_radial_4_1278)"/>
<path d="M257.879 36.1604C264.375 46.6417 267.763 59.1217 267.763 73.0032C267.763 93.6001 260.328 111.028 246.313 123.459C233.394 134.794 215.844 141.131 197.075 141.131C175.065 141.131 151.982 132.174 138.356 113.173C151.47 134.696 176.137 144.788 199.513 144.788C218.282 144.788 235.832 138.45 248.75 127.116C262.766 114.684 270.2 97.2563 270.2 76.6595C270.2 61.1326 265.971 47.3363 257.879 36.1604Z" fill="#EB8F00"/>
<path d="M230.469 107.25H169.531C166.838 107.25 164.656 105.068 164.656 102.375C164.656 99.6816 166.838 97.5 169.531 97.5H230.469C233.162 97.5 235.344 99.6816 235.344 102.375C235.344 105.068 233.162 107.25 230.469 107.25Z" fill="#422B0D"/>
<path d="M176.441 55.9893C171.335 55.9893 166.691 60.3036 166.691 67.4699C166.691 74.6361 171.335 78.9383 176.441 78.9383C181.548 78.9383 186.191 74.6239 186.191 67.4699C186.191 60.3158 181.548 55.9893 176.441 55.9893Z" fill="#422B0D"/>
<path d="M175.966 60.779C174.236 59.9503 172.152 60.6815 171.311 62.4122C170.665 63.765 170.957 65.3859 172.042 66.434C173.773 67.2628 175.857 66.5315 176.698 64.8009C177.344 63.4481 177.051 61.8272 175.966 60.779Z" fill="#896024"/>
<path d="M223.156 55.9893C218.05 55.9893 213.406 60.3036 213.406 67.4699C213.406 74.6361 218.05 78.9383 223.156 78.9383C228.263 78.9383 232.906 74.6239 232.906 67.4699C232.906 60.3158 228.287 55.9893 223.156 55.9893Z" fill="#422B0D"/>
<path d="M222.705 60.779C220.975 59.9503 218.891 60.6815 218.05 62.4122C217.404 63.765 217.696 65.3859 218.781 66.434C220.512 67.2628 222.596 66.5315 223.437 64.8009C224.082 63.4481 223.79 61.8272 222.705 60.779Z" fill="#896024"/>
<path d="M886.125 313.875C825.094 313.875 759.25 275.594 759.25 191.594C759.25 107.594 825.094 69.3125 886.125 69.3125C920.031 69.3125 951.313 80.4687 974.5 100.812C999.656 123.125 1013 154.625 1013 191.594C1013 228.563 999.656 259.844 974.5 282.156C951.313 302.5 919.813 313.875 886.125 313.875Z" fill="url(#paint6_radial_4_1278)"/>
<path d="M990.885 118.903C1002.54 137.716 1008.63 160.116 1008.63 185.031C1008.63 222 995.281 253.281 970.125 275.594C946.938 295.937 915.438 307.312 881.75 307.312C842.244 307.312 800.813 291.234 776.356 257.131C799.894 295.762 844.169 313.875 886.125 313.875C919.813 313.875 951.313 302.5 974.5 282.156C999.656 259.844 1013 228.562 1013 191.594C1013 163.725 1005.41 138.962 990.885 118.903Z" fill="#EB8F00"/>
<path d="M941.688 246.5H832.313C827.478 246.5 823.563 242.584 823.563 237.75C823.563 232.916 827.478 229 832.312 229H941.688C946.522 229 950.438 232.916 950.438 237.75C950.438 242.584 946.522 246.5 941.688 246.5Z" fill="#422B0D"/>
<path d="M844.716 154.494C835.55 154.494 827.216 162.237 827.216 175.1C827.216 187.962 835.55 195.684 844.716 195.684C853.881 195.684 862.216 187.941 862.216 175.1C862.216 162.259 853.881 154.494 844.716 154.494Z" fill="#422B0D"/>
<path d="M843.862 163.091C840.756 161.603 837.016 162.916 835.506 166.022C834.347 168.45 834.872 171.359 836.819 173.241C839.925 174.728 843.666 173.416 845.175 170.309C846.334 167.881 845.809 164.972 843.862 163.091Z" fill="#896024"/>
<path d="M928.562 154.494C919.397 154.494 911.063 162.237 911.063 175.1C911.063 187.962 919.397 195.684 928.563 195.684C937.728 195.684 946.063 187.941 946.063 175.1C946.063 162.259 937.772 154.494 928.562 154.494Z" fill="#422B0D"/>
<path d="M927.753 163.091C924.647 161.603 920.906 162.916 919.397 166.022C918.237 168.45 918.762 171.359 920.709 173.241C923.816 174.728 927.556 173.416 929.066 170.309C930.225 167.881 929.7 164.972 927.753 163.091Z" fill="#896024"/>
<defs>
<filter id="filter0_d_4_1278" x="-4" y="422" width="208" height="208" filterUnits="userSpaceOnUse" color-interpolation-filters="sRGB">
<feFlood flood-opacity="0" result="BackgroundImageFix"/>
<feColorMatrix in="SourceAlpha" type="matrix" values="0 0 0 0 0 0 0 0 0 0 0 0 0 0 0 0 0 0 127 0" result="hardAlpha"/>
<feOffset dy="4"/>
<feGaussianBlur stdDeviation="2"/>
<feComposite in2="hardAlpha" operator="out"/>
<feColorMatrix type="matrix" values="0 0 0 0 0 0 0 0 0 0 0 0 0 0 0 0 0 0 0.25 0"/>
<feBlend mode="normal" in2="BackgroundImageFix" result="effect1_dropShadow_4_1278"/>
<feBlend mode="normal" in="SourceGraphic" in2="effect1_dropShadow_4_1278" result="shape"/>
</filter>
<radialGradient id="paint0_radial_4_1278" cx="0" cy="0" r="1" gradientUnits="userSpaceOnUse" gradientTransform="translate(802.513 643.659) scale(69.4196 69.4196)">
<stop offset="0.5" stop-color="#FDE030"/>
<stop offset="0.92" stop-color="#F7C02B"/>
<stop offset="1" stop-color="#F4A223"/>
</radialGradient>
<radialGradient id="paint1_radial_4_1278" cx="0" cy="0" r="1" gradientUnits="userSpaceOnUse" gradientTransform="translate(476.75 318.562) scale(177.999 177.999)">
<stop offset="0.5" stop-color="#FDE030"/>
<stop offset="0.9188" stop-color="#F7C02B"/>
<stop offset="1" stop-color="#F4A223"/>
</radialGradient>
<radialGradient id="paint2_radial_4_1278" cx="0" cy="0" r="1" gradientUnits="userSpaceOnUse" gradientTransform="translate(363.158 346.465) scale(59.4938 56.5164)">
<stop stop-color="#ED7770"/>
<stop offset="0.9" stop-color="#ED7770" stop-opacity="0"/>
</radialGradient>
<radialGradient id="paint3_radial_4_1278" cx="0" cy="0" r="1" gradientUnits="userSpaceOnUse" gradientTransform="translate(592.851 346.465) scale(59.4938 56.5164)">
<stop stop-color="#ED7770"/>
<stop offset="0.9" stop-color="#ED7770" stop-opacity="0"/>
</radialGradient>
<radialGradient id="paint4_radial_4_1278" cx="0" cy="0" r="1" gradientUnits="userSpaceOnUse" gradientTransform="translate(99.375 520.281) scale(88.9995 88.9995)">
<stop offset="0.5" stop-color="#FDE030"/>
<stop offset="0.92" stop-color="#F7C02B"/>
<stop offset="1" stop-color="#F4A223"/>
</radialGradient>
<radialGradient id="paint5_radial_4_1278" cx="0" cy="0" r="1" gradientUnits="userSpaceOnUse" gradientTransform="translate(199.513 76.6593) scale(69.4196 69.4196)">
<stop offset="0.5" stop-color="#FDE030"/>
<stop offset="0.92" stop-color="#F7C02B"/>
<stop offset="1" stop-color="#F4A223"/>
</radialGradient>
<radialGradient id="paint6_radial_4_1278" cx="0" cy="0" r="1" gradientUnits="userSpaceOnUse" gradientTransform="translate(886.125 191.594) scale(124.599 124.599)">
<stop offset="0.5" stop-color="#FDE030"/>
<stop offset="0.92" stop-color="#F7C02B"/>
<stop offset="1" stop-color="#F4A223"/>
</radialGradient>
<clipPath id="clip0_4_1278">
<rect width="844" height="624.592" fill="white" transform="matrix(1 0 -0.148327 0.988938 139.644 25)"/>
</clipPath>
</defs>
</svg>
